<svg width="36" height="36" viewBox="0 0 36 36" fill="none" xmlns="http://www.w3.org/2000/svg">
<path d="M25.458 9.3765C25.1136 9.18488 24.7349 9.06302 24.3434 9.01789C23.9519 8.97277 23.5553 9.00525 23.1764 9.1135C22.7975 9.22175 22.4436 9.40363 22.135 9.64874C21.8264 9.89386 21.5692 10.1974 21.378 10.542L15.8085 20.565L12.621 17.3775C12.3443 17.091 12.0132 16.8624 11.6472 16.7052C11.2812 16.548 10.8875 16.4652 10.4892 16.4618C10.0909 16.4583 9.69583 16.5342 9.32714 16.685C8.95845 16.8359 8.62349 17.0586 8.34181 17.3403C8.06014 17.622 7.83738 17.957 7.68653 18.3256C7.53569 18.6943 7.45979 19.0894 7.46325 19.4877C7.46671 19.886 7.54947 20.2797 7.7067 20.6457C7.86392 21.0117 8.09247 21.3428 8.379 21.6195L14.379 27.6195C14.946 28.188 15.711 28.5 16.5 28.5L16.9155 28.47C17.3753 28.4057 17.8139 28.2355 18.1968 27.9729C18.5797 27.7102 18.8964 27.3623 19.122 26.9565L26.622 13.4565C26.8135 13.1122 26.9353 12.7335 26.9804 12.3421C27.0255 11.9507 26.9931 11.5543 26.885 11.1754C26.777 10.7966 26.5953 10.4427 26.3504 10.134C26.1056 9.82537 25.8023 9.56796 25.458 9.3765Z" fill="#1EFF50"/>
</svg>
