<svg width="208" height="195" viewBox="0 0 208 195" fill="none" xmlns="http://www.w3.org/2000/svg">
<g id="Group 9">
<path id="Vector" d="M194.396 94.8533C201.439 99.0545 203.803 108.133 199.702 115.235L166.954 171.959L156.182 190.615C154.874 192.881 151.845 193.43 149.825 191.768C149.609 191.59 149.375 191.434 149.128 191.302L125.906 178.906L107.058 168.024L47.3357 133.544C42.0159 130.473 39.1063 124.468 39.9923 118.39L52.2605 34.2242C53.8028 23.6431 65.6049 18.0277 74.788 23.5055L194.396 94.8533Z" fill="#F1F1F1"/>
<g id="Group 8">
<path id="Vector_2" d="M83.9745 127.089L83.9757 126.668C84.8132 126.67 85.6633 126.656 86.5028 126.625L86.5183 127.046C85.6732 127.077 84.8174 127.092 83.9745 127.089ZM81.4317 127.032C80.5899 126.996 79.7358 126.943 78.8932 126.874L78.9277 126.454C79.7648 126.523 80.6133 126.576 81.4496 126.611L81.4317 127.032ZM89.0577 126.902L89.0256 126.482C89.8616 126.417 90.7077 126.335 91.5403 126.237L91.5895 126.656C90.7513 126.754 89.8995 126.837 89.0577 126.902ZM76.3628 126.615C75.5233 126.511 74.6762 126.39 73.8448 126.254L73.913 125.838C74.7388 125.973 75.5803 126.094 76.4141 126.196L76.3628 126.615ZM94.1092 126.309L94.0434 125.893C94.8698 125.762 95.7066 125.612 96.5305 125.447L96.613 125.86C95.7837 126.026 94.9412 126.177 94.1092 126.309H94.1092ZM71.3435 125.791C70.5152 125.621 69.6806 125.431 68.8628 125.228L68.9643 124.819C69.7766 125.021 70.6056 125.209 71.4283 125.379L71.3435 125.791ZM99.0969 125.31L98.9974 124.901C99.8136 124.703 100.635 124.486 101.44 124.255L101.556 124.66C100.746 124.892 99.9184 125.111 99.0969 125.31H99.0969ZM66.4068 124.565C65.5955 124.328 64.7789 124.071 63.9799 123.803L64.1143 123.403C64.908 123.67 65.719 123.925 66.525 124.161L66.4068 124.565ZM103.987 123.911L103.855 123.511C104.651 123.248 105.452 122.965 106.237 122.669L106.386 123.064C105.595 123.361 104.788 123.646 103.987 123.911H103.987ZM61.5793 122.94C60.7902 122.638 59.9954 122.315 59.2168 121.981L59.3831 121.594C60.1564 121.926 60.946 122.247 61.7299 122.546L61.5793 122.94ZM108.742 122.123L108.578 121.735C109.349 121.408 110.123 121.062 110.879 120.706L111.058 121.087C110.297 121.446 109.518 121.794 108.742 122.123H108.742ZM56.8957 120.927C56.1318 120.561 55.3661 120.175 54.6198 119.78L54.817 119.408C55.5583 119.8 56.3188 120.184 57.0775 120.547L56.8957 120.927ZM113.332 119.958L113.137 119.585C113.88 119.197 114.625 118.789 115.35 118.373L115.559 118.738C114.83 119.157 114.08 119.568 113.332 119.958ZM52.3929 118.542C51.6604 118.115 50.9288 117.669 50.2184 117.216L50.4449 116.861C51.1505 117.311 51.8773 117.754 52.6049 118.178L52.3929 118.542ZM117.736 117.429L117.512 117.073C118.22 116.628 118.929 116.161 119.621 115.686L119.859 116.033C119.163 116.512 118.449 116.981 117.736 117.429ZM48.0995 115.804C47.4046 115.32 46.7116 114.817 46.0395 114.308L46.2938 113.972C46.9614 114.478 47.6499 114.978 48.34 115.458L48.0995 115.804ZM121.925 114.553L121.673 114.216C122.343 113.716 123.013 113.194 123.666 112.664L123.931 112.991C123.274 113.524 122.599 114.05 121.925 114.553V114.553ZM44.0416 112.73C43.3895 112.194 42.7393 111.637 42.109 111.075L42.3893 110.761C43.0155 111.319 43.6614 111.872 44.3092 112.405L44.0416 112.73ZM125.873 111.35L125.595 111.034C126.224 110.48 126.851 109.905 127.457 109.327L127.748 109.632C127.137 110.214 126.506 110.792 125.873 111.35ZM40.2445 109.344C39.6389 108.758 39.0356 108.151 38.4514 107.539L38.7559 107.248C39.3363 107.856 39.9357 108.459 40.5374 109.041L40.2445 109.344ZM129.553 107.839L129.25 107.546C129.833 106.944 130.412 106.321 130.971 105.695L131.285 105.976C130.722 106.606 130.139 107.233 129.553 107.839ZM36.7321 105.666C36.1726 105.031 35.62 104.378 35.0894 103.724L35.4164 103.459C35.9433 104.108 36.4924 104.757 37.048 105.387L36.7321 105.666ZM132.942 104.044L132.617 103.776C133.151 103.128 133.678 102.46 134.184 101.793L134.52 102.047C134.011 102.719 133.479 103.391 132.942 104.044V104.044ZM33.5261 101.72C33.0208 101.044 32.5224 100.35 32.0449 99.6549L32.392 99.4162C32.8663 100.106 33.3613 100.797 33.8634 101.468L33.5261 101.72ZM136.017 99.9879L135.672 99.7474C136.152 99.0571 136.625 98.3491 137.075 97.6432L137.43 97.8697C136.977 98.5804 136.501 99.2931 136.017 99.9879ZM30.6479 97.5324C30.1989 96.8194 29.7582 96.0873 29.3377 95.3562L29.7028 95.1464C30.1204 95.8725 30.5583 96.5997 31.0042 97.308L30.6479 97.5324ZM138.758 95.696L138.394 95.4838C138.818 94.7565 139.232 94.0124 139.625 93.2723L139.997 93.4697C139.602 94.2147 139.185 94.9638 138.758 95.696V95.696ZM28.1166 93.1293C27.7267 92.383 27.3465 91.6181 26.9866 90.856L27.3674 90.6763C27.7249 91.4333 28.1026 92.1929 28.4899 92.9344L28.1166 93.1293ZM141.145 91.1946L140.765 91.0124C141.128 90.2551 141.481 89.4797 141.813 88.7076L142.2 88.8742C141.866 89.6515 141.511 90.4322 141.145 91.1946ZM25.9495 88.5403C25.6204 87.7635 25.3033 86.9711 25.0072 86.1849L25.4013 86.0365C25.6955 86.8171 26.0104 87.6043 26.3373 88.3758L25.9495 88.5403ZM143.161 86.5119L142.768 86.3613C143.069 85.5744 143.358 84.7722 143.626 83.9774L144.025 84.112C143.755 84.9124 143.464 85.7196 143.161 86.5118V86.5119ZM24.1587 83.7867C23.8931 82.9852 23.6406 82.1673 23.4081 81.356L23.813 81.2401C24.044 82.0458 24.2948 82.8582 24.5585 83.6543L24.1587 83.7867ZM144.789 81.6851L144.384 81.567C144.619 80.764 144.841 79.9436 145.045 79.128L145.453 79.2297C145.249 80.0508 145.025 80.877 144.789 81.6851ZM22.7568 78.8969C22.5571 78.0761 22.3718 77.2408 22.2056 76.4137L22.6187 76.3307C22.7836 77.1522 22.9677 77.9823 23.166 78.7975L22.7568 78.8969ZM146.018 76.7497L145.605 76.6645C145.774 75.8447 145.929 75.0088 146.066 74.1802L146.481 74.2486C146.344 75.0827 146.188 75.9241 146.018 76.7497V76.7497ZM21.7555 73.91C21.6232 73.0781 21.5059 72.2305 21.4069 71.3904L21.8251 71.3412C21.9236 72.1757 22.0401 73.0176 22.1716 73.8439L21.7555 73.91ZM146.844 71.7303L146.426 71.6788C146.528 70.8454 146.616 69.9998 146.685 69.1656L147.104 69.2003C147.035 70.0401 146.947 70.8914 146.844 71.7303V71.7303ZM21.1598 68.859C21.0946 68.0176 21.0456 67.1631 21.0141 66.3193L21.4349 66.3036C21.4662 67.1418 21.5149 67.9906 21.5796 68.8265L21.1598 68.859ZM147.264 66.662L146.843 66.6439C146.879 65.8048 146.899 64.9549 146.901 64.1178L146.902 63.9782L147.323 63.9796L147.323 64.1182C147.32 64.9617 147.3 65.8172 147.264 66.662ZM21.3904 63.7771L20.9692 63.7758L20.9696 63.705C20.9723 62.8834 20.9909 62.0514 21.0252 61.2331L21.4459 61.2507C21.412 62.0637 21.3934 62.8902 21.3907 63.7073L21.3904 63.7771ZM146.854 61.4523C146.822 60.6159 146.773 59.7671 146.707 58.9297L147.127 58.8967C147.193 59.7398 147.243 60.5942 147.275 61.4362L146.854 61.4523ZM21.6017 58.7288L21.1818 58.6945C21.2508 57.8513 21.3377 57 21.44 56.1639L21.8581 56.2151C21.7565 57.0456 21.6702 57.8914 21.6017 58.7288ZM146.459 56.4151C146.36 55.5842 146.243 54.7423 146.11 53.9128L146.526 53.8462C146.659 54.6812 146.778 55.5288 146.877 56.3655L146.459 56.4151ZM22.2151 53.7138L21.7995 53.6459C21.9357 52.8124 22.0907 51.9706 22.2605 51.1442L22.673 51.2289C22.5044 52.0498 22.3505 52.8858 22.2151 53.7138H22.2151ZM145.66 51.4264C145.493 50.6029 145.308 49.7733 145.11 48.9604L145.519 48.8603C145.719 49.6787 145.905 50.514 146.072 51.3431L145.66 51.4264ZM23.2309 48.7646L22.822 48.6633C23.025 47.8442 23.2478 47.0178 23.4841 46.2069L23.8884 46.3247C23.6537 47.1302 23.4325 47.951 23.2309 48.7646ZM144.46 46.5186C144.228 45.7134 143.977 44.9014 143.712 44.1051L144.112 43.9723C144.378 44.7739 144.632 45.5914 144.865 46.402L144.46 46.5186ZM24.6443 43.9137L24.245 43.7795C24.5142 42.9785 24.8039 42.1707 25.1062 41.3786L25.4998 41.5288C25.1994 42.3156 24.9115 43.118 24.6443 43.9137ZM142.866 41.724C142.57 40.9395 142.254 40.1528 141.928 39.3855L142.315 39.2208C142.644 39.9933 142.962 40.7852 143.26 41.5749L142.866 41.724ZM26.4513 39.1814L26.0642 39.0152C26.3977 38.2382 26.7519 37.457 27.1169 36.6937L27.4969 36.8753C27.1343 37.6336 26.7826 38.4095 26.4513 39.1814H26.4513ZM140.895 37.0859C140.537 36.3298 140.159 35.5705 139.77 34.8292L140.143 34.6337C140.534 35.3801 140.915 36.1444 141.276 36.9058L140.895 37.0859ZM28.635 34.6141L28.2626 34.4173C28.6576 33.6703 29.0736 32.9208 29.4989 32.1895L29.8631 32.4013C29.4405 33.1276 29.0273 33.8722 28.635 34.6141ZM138.555 32.619C138.136 31.8926 137.697 31.1658 137.251 30.4586L137.607 30.2338C138.057 30.9457 138.498 31.6774 138.92 32.4085L138.555 32.619ZM31.1792 30.2406L30.824 30.0142C31.2781 29.3014 31.753 28.5882 32.2351 27.8945L32.5809 28.1349C32.1019 28.824 31.6304 29.5324 31.1792 30.2406ZM135.861 28.3518C135.385 27.6618 134.889 26.972 134.387 26.302L134.724 26.0493C135.23 26.7239 135.729 27.4182 136.208 28.1129L135.861 28.3518ZM34.0658 26.0878L33.73 25.8337C34.2398 25.1598 34.77 24.4874 35.3059 23.835L35.6314 24.1024C35.099 24.7504 34.5723 25.4184 34.0658 26.0878ZM132.832 24.3124C132.303 23.6625 131.753 23.0144 131.198 22.3862L131.514 22.1073C132.073 22.7398 132.626 23.3922 133.159 24.0465L132.832 24.3124ZM37.275 22.1816L36.9606 21.9015C37.5219 21.2715 38.104 20.6439 38.6908 20.0361L38.9938 20.3287C38.4109 20.9324 37.8326 21.5559 37.275 22.1816H37.275ZM129.488 20.5263C128.908 19.9197 128.308 19.3174 127.705 18.7361L127.997 18.4329C128.604 19.0181 129.208 19.6244 129.793 20.2351L129.488 20.5263ZM40.785 18.5463L40.4939 18.2418C41.1035 17.659 41.7338 17.0803 42.367 16.5215L42.6457 16.8373C42.0166 17.3924 41.3906 17.9674 40.785 18.5463L40.785 18.5463ZM125.851 17.0183C125.224 16.4599 124.577 15.9072 123.93 15.3758L124.197 15.0502C124.849 15.5852 125.5 16.1415 126.131 16.7037L125.851 17.0183ZM44.5728 15.2045L44.307 14.8779C44.9622 14.3448 45.6364 13.8186 46.3107 13.3137L46.5632 13.6507C45.8933 14.1523 45.2236 14.6752 44.5729 15.2045L44.5728 15.2045ZM121.943 13.8114C121.273 13.3049 120.584 12.8057 119.895 12.3276L120.135 11.9816C120.828 12.463 121.522 12.9655 122.197 13.4754L121.943 13.8114ZM48.6141 12.1779L48.3752 11.831C49.0711 11.3521 49.7849 10.8818 50.4969 10.4329L50.7216 10.7892C50.0143 11.235 49.3052 11.7022 48.6141 12.1779ZM117.789 10.9269C117.08 10.476 116.353 10.0336 115.627 9.61204L115.839 9.2479C116.569 9.67229 117.301 10.1177 118.015 10.5715L117.789 10.9269ZM52.8825 9.48675L52.6724 9.12164C53.402 8.70171 54.1509 8.29038 54.8981 7.89931L55.0935 8.27239C54.3511 8.6609 53.6073 9.06947 52.8825 9.48674V9.48675ZM113.414 8.38506C112.671 7.99292 111.91 7.61048 111.152 7.24841L111.334 6.86834C112.097 7.23279 112.863 7.61781 113.61 8.01265L113.414 8.38506ZM57.3507 7.14877L57.1707 6.76793C57.9314 6.40836 58.7104 6.05903 59.4863 5.72964L59.6508 6.11732C58.8801 6.44446 58.1062 6.79144 57.3507 7.14876L57.3507 7.14877ZM108.845 6.20406C108.072 5.8728 107.283 5.55319 106.497 5.25386L106.648 4.86032C107.438 5.16162 108.233 5.4835 109.011 5.81694L108.845 6.20406ZM61.9899 5.17998L61.8411 4.78586C62.6302 4.48798 63.4369 4.20209 64.2388 3.93602L64.3713 4.33584C63.5749 4.60008 62.7736 4.88413 61.9899 5.17998ZM104.112 4.39958C103.317 4.13302 102.506 3.87915 101.7 3.64506L101.818 3.24072C102.629 3.47637 103.445 3.7319 104.246 4.00022L104.112 4.39958ZM66.7854 3.58877L66.6691 3.18407C67.4798 2.95105 68.307 2.73144 69.1278 2.53124L69.2276 2.94041C68.4123 3.13929 67.5907 3.35748 66.7854 3.58877ZM99.2604 2.98906C98.4479 2.78805 97.6186 2.60076 96.7957 2.43242L96.8801 2.01974C97.7085 2.18924 98.5434 2.37788 99.3614 2.58014L99.2604 2.98906ZM71.6939 2.39187L71.6107 1.97905C72.4369 1.81271 73.2792 1.66081 74.1141 1.5275L74.1806 1.94335C73.3511 2.07585 72.5146 2.22674 71.6939 2.39187ZM94.3106 1.97596C93.4827 1.84122 92.6411 1.72146 91.8089 1.62023L91.8599 1.20209C92.6976 1.30406 93.5449 1.42458 94.3782 1.56035L94.3106 1.97596ZM76.6831 1.59554L76.6334 1.17728C77.4716 1.07802 78.3233 0.994328 79.1648 0.928808L79.1976 1.34866C78.3616 1.41389 77.5156 1.49688 76.6831 1.59554ZM89.2952 1.36522C88.4605 1.2974 87.6119 1.24547 86.7732 1.21096L86.7906 0.790039C87.6349 0.824882 88.489 0.877134 89.3293 0.945383L89.2952 1.36522ZM81.7203 1.20256L81.7044 0.781734C82.5467 0.749733 83.4024 0.734227 84.2477 0.735552L84.247 1.15673C83.4073 1.15543 82.5572 1.17084 81.7203 1.20256Z" fill="#3F3D56"/>
<g id="book svg">
<path id="Vector_3" d="M75.1079 54.9896H4.61475V153.012H75.1079C75.3611 153.012 75.604 152.911 75.783 152.732C75.9621 152.553 76.0626 152.31 76.0627 152.057V55.9444C76.0626 55.6912 75.9621 55.4483 75.783 55.2693C75.604 55.0902 75.3611 54.9896 75.1079 54.9896ZM8.59291 150.307C8.24671 150.307 7.90829 150.204 7.62044 150.012C7.33259 149.819 7.10824 149.546 6.97575 149.226C6.84327 148.906 6.80861 148.554 6.87615 148.215C6.94369 147.875 7.11039 147.563 7.35519 147.318C7.59999 147.074 7.91188 146.907 8.25143 146.839C8.59097 146.772 8.94291 146.807 9.26276 146.939C9.5826 147.071 9.85598 147.296 10.0483 147.584C10.2406 147.872 10.3433 148.21 10.3433 148.556C10.3433 148.786 10.298 149.014 10.2101 149.226C10.1221 149.438 9.99317 149.631 9.83063 149.794C9.66809 149.956 9.47513 150.085 9.26276 150.173C9.05039 150.261 8.82278 150.307 8.59291 150.307ZM8.59291 141.395C8.24672 141.395 7.9083 141.293 7.62045 141.1C7.33259 140.908 7.10824 140.635 6.97576 140.315C6.84327 139.995 6.80861 139.643 6.87615 139.304C6.94369 138.964 7.1104 138.652 7.3552 138.407C7.59999 138.163 7.91189 137.996 8.25143 137.928C8.59097 137.861 8.94291 137.895 9.26276 138.028C9.5826 138.16 9.85598 138.385 10.0483 138.673C10.2406 138.96 10.3433 139.299 10.3433 139.645C10.3433 139.875 10.298 140.103 10.2101 140.315C10.1221 140.527 9.99317 140.72 9.83063 140.883C9.66809 141.045 9.47513 141.174 9.26276 141.262C9.05039 141.35 8.82278 141.395 8.59291 141.395ZM8.59291 132.484C8.24672 132.484 7.9083 132.382 7.62045 132.189C7.33259 131.997 7.10824 131.724 6.97576 131.404C6.84327 131.084 6.80861 130.732 6.87615 130.392C6.94369 130.053 7.1104 129.741 7.3552 129.496C7.59999 129.251 7.91189 129.085 8.25143 129.017C8.59097 128.95 8.94291 128.984 9.26276 129.117C9.5826 129.249 9.85598 129.474 10.0483 129.761C10.2406 130.049 10.3433 130.388 10.3433 130.734C10.3433 130.964 10.298 131.191 10.2101 131.404C10.1221 131.616 9.99317 131.809 9.83063 131.972C9.66809 132.134 9.47513 132.263 9.26276 132.351C9.05039 132.439 8.82278 132.484 8.59291 132.484ZM8.59291 123.573C8.24672 123.573 7.9083 123.471 7.62045 123.278C7.33259 123.086 7.10824 122.813 6.97576 122.493C6.84327 122.173 6.80861 121.821 6.87615 121.481C6.94369 121.142 7.1104 120.83 7.3552 120.585C7.59999 120.34 7.91189 120.174 8.25143 120.106C8.59097 120.039 8.94291 120.073 9.26276 120.206C9.5826 120.338 9.85598 120.563 10.0483 120.85C10.2406 121.138 10.3433 121.477 10.3433 121.823C10.3433 122.053 10.298 122.28 10.2101 122.493C10.1221 122.705 9.99317 122.898 9.83063 123.061C9.66809 123.223 9.47513 123.352 9.26276 123.44C9.05039 123.528 8.82278 123.573 8.59291 123.573ZM8.59291 114.662C8.24672 114.662 7.9083 114.559 7.62045 114.367C7.33259 114.175 7.10824 113.901 6.97576 113.582C6.84327 113.262 6.80861 112.91 6.87615 112.57C6.94369 112.231 7.1104 111.919 7.3552 111.674C7.59999 111.429 7.91189 111.263 8.25143 111.195C8.59097 111.127 8.94291 111.162 9.26276 111.295C9.5826 111.427 9.85598 111.651 10.0483 111.939C10.2406 112.227 10.3433 112.566 10.3433 112.912C10.3433 113.142 10.298 113.369 10.2101 113.582C10.1221 113.794 9.99317 113.987 9.83063 114.149C9.66809 114.312 9.47513 114.441 9.26276 114.529C9.05039 114.617 8.82278 114.662 8.59291 114.662ZM8.59291 105.751C8.24672 105.751 7.9083 105.648 7.62045 105.456C7.33259 105.264 7.10824 104.99 6.97576 104.671C6.84327 104.351 6.80861 103.999 6.87615 103.659C6.94369 103.32 7.1104 103.008 7.3552 102.763C7.59999 102.518 7.91189 102.351 8.25143 102.284C8.59097 102.216 8.94291 102.251 9.26276 102.384C9.5826 102.516 9.85598 102.74 10.0483 103.028C10.2406 103.316 10.3433 103.654 10.3433 104.001C10.3433 104.231 10.298 104.458 10.2101 104.671C10.1221 104.883 9.99317 105.076 9.83063 105.238C9.66809 105.401 9.47513 105.53 9.26276 105.618C9.05039 105.706 8.82278 105.751 8.59291 105.751ZM8.59291 96.84C8.24672 96.84 7.9083 96.7373 7.62045 96.545C7.33259 96.3526 7.10824 96.0793 6.97576 95.7594C6.84327 95.4396 6.80861 95.0876 6.87615 94.7481C6.94369 94.4085 7.1104 94.0966 7.3552 93.8518C7.59999 93.6071 7.91189 93.4403 8.25143 93.3728C8.59097 93.3053 8.94291 93.3399 9.26276 93.4724C9.5826 93.6049 9.85598 93.8292 10.0483 94.1171C10.2406 94.4049 10.3433 94.7434 10.3433 95.0896C10.3433 95.3194 10.298 95.547 10.2101 95.7594C10.1221 95.9718 9.99317 96.1647 9.83063 96.3273C9.66809 96.4898 9.47513 96.6188 9.26276 96.7067C9.05039 96.7947 8.82278 96.84 8.59291 96.84ZM8.59291 87.9289C8.24672 87.9289 7.9083 87.8262 7.62045 87.6339C7.33259 87.4415 7.10824 87.1682 6.97576 86.8483C6.84327 86.5285 6.80861 86.1765 6.87615 85.837C6.94369 85.4974 7.1104 85.1855 7.3552 84.9408C7.59999 84.696 7.91189 84.5292 8.25143 84.4617C8.59097 84.3942 8.94291 84.4288 9.26276 84.5613C9.5826 84.6938 9.85598 84.9182 10.0483 85.206C10.2406 85.4939 10.3433 85.8323 10.3433 86.1785C10.3433 86.4083 10.298 86.6359 10.2101 86.8483C10.1221 87.0607 9.99317 87.2536 9.83063 87.4162C9.66809 87.5787 9.47513 87.7077 9.26276 87.7956C9.05039 87.8836 8.82278 87.9289 8.59291 87.9289ZM8.59291 79.0178C8.24672 79.0178 7.9083 78.9151 7.62045 78.7228C7.33259 78.5304 7.10824 78.2571 6.97576 77.9372C6.84327 77.6174 6.80861 77.2654 6.87615 76.9259C6.94369 76.5863 7.1104 76.2745 7.3552 76.0297C7.59999 75.7849 7.91189 75.6182 8.25143 75.5506C8.59097 75.4831 8.94291 75.5177 9.26276 75.6502C9.5826 75.7827 9.85598 76.0071 10.0483 76.2949C10.2406 76.5828 10.3433 76.9212 10.3433 77.2674C10.3433 77.4972 10.298 77.7248 10.2101 77.9372C10.1221 78.1496 9.99317 78.3426 9.83063 78.5051C9.66809 78.6676 9.47513 78.7966 9.26276 78.8845C9.05039 78.9725 8.82278 79.0178 8.59291 79.0178ZM8.59291 70.1067C8.24671 70.1067 7.90829 70.004 7.62044 69.8117C7.33259 69.6193 7.10824 69.346 6.97575 69.0261C6.84327 68.7063 6.80861 68.3543 6.87615 68.0148C6.94369 67.6752 7.1104 67.3634 7.35519 67.1186C7.59999 66.8738 7.91188 66.707 8.25143 66.6395C8.59097 66.572 8.94291 66.6066 9.26276 66.7391C9.5826 66.8716 9.85598 67.0959 10.0483 67.3838C10.2406 67.6717 10.3433 68.0101 10.3433 68.3563C10.3433 68.5861 10.298 68.8138 10.2101 69.0261C10.1221 69.2385 9.99317 69.4315 9.83063 69.594C9.66809 69.7565 9.47513 69.8855 9.26276 69.9734C9.05039 70.0614 8.82278 70.1067 8.59291 70.1067ZM8.59291 61.1956C8.24671 61.1956 7.90829 61.0929 7.62044 60.9006C7.33259 60.7082 7.10824 60.4349 6.97575 60.115C6.84327 59.7952 6.80861 59.4432 6.87615 59.1037C6.94369 58.7641 7.1104 58.4523 7.35519 58.2075C7.59999 57.9627 7.91188 57.796 8.25143 57.7284C8.59097 57.6609 8.94291 57.6955 9.26276 57.828C9.5826 57.9605 9.85598 58.1849 10.0483 58.4727C10.2406 58.7606 10.3433 59.099 10.3433 59.4452C10.3433 59.675 10.298 59.9027 10.2101 60.115C10.1221 60.3274 9.99317 60.5204 9.83063 60.6829C9.66809 60.8454 9.47513 60.9744 9.26276 61.0623C9.05039 61.1503 8.82278 61.1956 8.59291 61.1956Z" fill="#3F3D56"/>
<path id="Vector_4" d="M4.61467 60.3999C4.14234 60.3999 0 60.3776 0 59.6042C0 58.8309 4.14234 58.8086 4.61467 58.8086V59.1268C2.17488 59.1268 0.592877 59.4 0.338104 59.6042C0.592877 59.8085 2.17488 60.0816 4.61467 60.0816C7.04903 60.0816 8.6294 59.8097 8.8895 59.6056C8.76572 59.5182 8.26008 59.335 6.90383 59.2178L6.93122 58.9007C9.22935 59.0993 9.22935 59.4662 9.22935 59.6042C9.22935 60.3776 5.087 60.3999 4.61467 60.3999Z" fill="#2F2E41"/>
<path id="Vector_5" d="M4.61467 69.1519C4.14234 69.1519 0 69.1296 0 68.3563C0 67.583 4.14234 67.5607 4.61467 67.5607V67.8789C2.17488 67.8789 0.592877 68.152 0.338104 68.3563C0.592877 68.5606 2.17488 68.8337 4.61467 68.8337C7.04903 68.8337 8.6294 68.5617 8.8895 68.3577C8.76572 68.2703 8.26008 68.0871 6.90383 67.9698L6.93122 67.6528C9.22935 67.8514 9.22935 68.2182 9.22935 68.3563C9.22935 69.1296 5.087 69.1519 4.61467 69.1519Z" fill="#2F2E41"/>
<path id="Vector_6" d="M4.61467 78.0631C4.14234 78.0631 0 78.0408 0 77.2674C0 76.4941 4.14234 76.4718 4.61467 76.4718V76.7901C2.17488 76.7901 0.592877 77.0632 0.338104 77.2674C0.592877 77.4717 2.17488 77.7448 4.61467 77.7448C7.04903 77.7448 8.6294 77.4729 8.8895 77.2688C8.76572 77.1814 8.26008 76.9982 6.90383 76.881L6.93122 76.564C9.22935 76.7626 9.22935 77.1294 9.22935 77.2674C9.22935 78.0408 5.087 78.0631 4.61467 78.0631Z" fill="#2F2E41"/>
<path id="Vector_7" d="M4.61467 86.9741C4.14234 86.9741 0 86.9518 0 86.1784C0 85.4051 4.14234 85.3828 4.61467 85.3828V85.7011C2.17488 85.7011 0.592877 85.9742 0.338104 86.1784C0.592877 86.3827 2.17488 86.6558 4.61467 86.6558C7.04903 86.6558 8.6294 86.3839 8.8895 86.1799C8.76572 86.0924 8.26008 85.9092 6.90383 85.792L6.93122 85.475C9.22935 85.6736 9.22935 86.0404 9.22935 86.1785C9.22935 86.9518 5.087 86.9741 4.61467 86.9741Z" fill="#2F2E41"/>
<path id="Vector_8" d="M4.61467 95.8852C4.14234 95.8852 0 95.8629 0 95.0896C0 94.3162 4.14234 94.2939 4.61467 94.2939V94.6122C2.17488 94.6122 0.592877 94.8853 0.338104 95.0896C0.592877 95.2938 2.17488 95.567 4.61467 95.567C7.04903 95.567 8.6294 95.295 8.8895 95.091C8.76572 95.0036 8.26008 94.8204 6.90383 94.7031L6.93122 94.3861C9.22935 94.5847 9.22935 94.9515 9.22935 95.0896C9.22935 95.8629 5.087 95.8852 4.61467 95.8852Z" fill="#2F2E41"/>
<path id="Vector_9" d="M4.61467 104.796C4.14234 104.796 0 104.774 0 104.001C0 103.227 4.14234 103.205 4.61467 103.205V103.523C2.17488 103.523 0.592877 103.796 0.338104 104.001C0.592877 104.205 2.17488 104.478 4.61467 104.478C7.04903 104.478 8.6294 104.206 8.8895 104.002C8.76572 103.915 8.26008 103.731 6.90383 103.614L6.93122 103.297C9.22935 103.496 9.22935 103.863 9.22935 104.001C9.22935 104.774 5.087 104.796 4.61467 104.796Z" fill="#2F2E41"/>
<path id="Vector_10" d="M4.61467 113.707C4.14234 113.707 0 113.685 0 112.912C0 112.138 4.14234 112.116 4.61467 112.116V112.434C2.17488 112.434 0.592877 112.707 0.338104 112.912C0.592877 113.116 2.17488 113.389 4.61467 113.389C7.04903 113.389 8.6294 113.117 8.8895 112.913C8.76572 112.826 8.26008 112.643 6.90383 112.525L6.93122 112.208C9.22935 112.407 9.22935 112.774 9.22935 112.912C9.22935 113.685 5.087 113.707 4.61467 113.707Z" fill="#2F2E41"/>
<path id="Vector_11" d="M4.61467 122.618C4.14234 122.618 0 122.596 0 121.823C0 121.05 4.14234 121.027 4.61467 121.027V121.345C2.17488 121.345 0.592877 121.619 0.338104 121.823C0.592877 122.027 2.17488 122.3 4.61467 122.3C7.04903 122.3 8.6294 122.028 8.8895 121.824C8.76572 121.737 8.26008 121.554 6.90383 121.436L6.93122 121.119C9.22935 121.318 9.22935 121.685 9.22935 121.823C9.22935 122.596 5.087 122.618 4.61467 122.618Z" fill="#2F2E41"/>
<path id="Vector_12" d="M4.61467 131.53C4.14234 131.53 0 131.507 0 130.734C0 129.961 4.14234 129.938 4.61467 129.938V130.257C2.17488 130.257 0.592877 130.53 0.338104 130.734C0.592877 130.938 2.17488 131.211 4.61467 131.211C7.04903 131.211 8.6294 130.939 8.8895 130.735C8.76572 130.648 8.26008 130.465 6.90383 130.348L6.93122 130.031C9.22935 130.229 9.22935 130.596 9.22935 130.734C9.22935 131.507 5.087 131.53 4.61467 131.53Z" fill="#2F2E41"/>
<path id="Vector_13" d="M4.61467 140.441C4.14234 140.441 0 140.418 0 139.645C0 138.872 4.14234 138.849 4.61467 138.849V139.168C2.17488 139.168 0.592877 139.441 0.338104 139.645C0.592877 139.849 2.17488 140.123 4.61467 140.123C7.04903 140.123 8.6294 139.851 8.8895 139.647C8.76572 139.559 8.26008 139.376 6.90383 139.259L6.93122 138.942C9.22935 139.14 9.22935 139.507 9.22935 139.645C9.22935 140.418 5.087 140.441 4.61467 140.441Z" fill="#2F2E41"/>
<path id="Vector_14" d="M4.61467 149.352C4.14234 149.352 0 149.329 0 148.556C0 147.783 4.14234 147.76 4.61467 147.76V148.079C2.17488 148.079 0.592877 148.352 0.338104 148.556C0.592877 148.76 2.17488 149.034 4.61467 149.034C7.04903 149.034 8.6294 148.762 8.8895 148.558C8.76572 148.47 8.26008 148.287 6.90383 148.17L6.93122 147.853C9.22935 148.051 9.22935 148.418 9.22935 148.556C9.22935 149.329 5.087 149.352 4.61467 149.352Z" fill="#2F2E41"/>
<path id="Vector_15" d="M60.7068 92.464H25.6989C25.4246 92.4637 25.1617 92.3546 24.9678 92.1607C24.7739 91.9668 24.6649 91.7039 24.6646 91.4297V77.7448C24.6649 77.4706 24.7739 77.2076 24.9678 77.0137C25.1617 76.8198 25.4246 76.7108 25.6989 76.7104H60.7068C60.981 76.7108 61.2439 76.8198 61.4378 77.0137C61.6317 77.2076 61.7408 77.4706 61.7411 77.7448V91.4297C61.7408 91.7039 61.6317 91.9668 61.4378 92.1607C61.2439 92.3546 60.981 92.4637 60.7068 92.464Z" fill="white"/>
<path id="Vector_16" d="M47.6584 81.4046H38.7473C38.5363 81.4046 38.3339 81.3208 38.1847 81.1716C38.0355 81.0224 37.9517 80.82 37.9517 80.609C37.9517 80.398 38.0355 80.1956 38.1847 80.0464C38.3339 79.8972 38.5363 79.8134 38.7473 79.8134H47.6584C47.8694 79.8134 48.0718 79.8972 48.221 80.0464C48.3702 80.1956 48.454 80.398 48.454 80.609C48.454 80.82 48.3702 81.0224 48.221 81.1716C48.0718 81.3208 47.8694 81.4046 47.6584 81.4046H47.6584Z" fill="#FF6584"/>
<path id="Vector_17" d="M52.5914 85.3829H33.8144C33.6034 85.3829 33.401 85.2991 33.2518 85.1499C33.1026 85.0006 33.0188 84.7983 33.0188 84.5873C33.0188 84.3762 33.1026 84.1739 33.2518 84.0247C33.401 83.8755 33.6034 83.7916 33.8144 83.7916H52.5914C52.8024 83.7916 53.0048 83.8755 53.154 84.0247C53.3032 84.1739 53.387 84.3762 53.387 84.5873C53.387 84.7983 53.3032 85.0006 53.154 85.1499C53.0048 85.2991 52.8024 85.3829 52.5914 85.3829Z" fill="#FF6584"/>
<path id="Vector_18" d="M52.5914 89.361H33.8144C33.6034 89.361 33.401 89.2772 33.2518 89.128C33.1026 88.9788 33.0188 88.7764 33.0188 88.5654C33.0188 88.3544 33.1026 88.152 33.2518 88.0028C33.401 87.8536 33.6034 87.7698 33.8144 87.7698H52.5914C52.8024 87.7698 53.0048 87.8536 53.154 88.0028C53.3032 88.152 53.387 88.3544 53.387 88.5654C53.387 88.7764 53.3032 88.9788 53.154 89.128C53.0048 89.2772 52.8024 89.361 52.5914 89.361Z" fill="#FF6584"/>
</g>
<g id=" box2">
<path id="Vector_19" d="M109.79 108.339L37.9021 108.104L37.8416 126.612L109.729 126.847L109.79 108.339Z" fill="#72717C"/>
<path id="Vector_20" d="M46.4624 122.394C49.2437 122.394 51.4985 120.139 51.4985 117.358C51.4985 114.577 49.2437 112.322 46.4624 112.322C43.681 112.322 41.4263 114.577 41.4263 117.358C41.4263 120.139 43.681 122.394 46.4624 122.394Z" fill="#FF6584"/>
<path id="Vector_21" d="M77.8775 113.215L57.042 113.147L57.0371 114.628L77.8727 114.696L77.8775 113.215Z" fill="white"/>
<path id="Vector_22" d="M102.948 116.852L57.0305 116.701L57.0257 118.183L102.943 118.333L102.948 116.852Z" fill="white"/>
<path id="Vector_23" d="M102.936 120.407L57.0188 120.256L57.014 121.738L102.931 121.888L102.936 120.407Z" fill="white"/>
</g>
<g id="Group 7">
<path id="Vector_24" d="M106.455 150.248H85.2963C83.8524 141.9 83.8524 133.367 85.2963 125.019H106.455C104.072 133.26 104.072 142.007 106.455 150.248Z" fill="#FF6584"/>
<path id="Vector_25" d="M100.688 132.433C99.9792 132.155 99.2172 132.04 98.4582 132.097C97.6993 132.154 96.963 132.381 96.3041 132.762C95.1923 133.383 94.1837 134.142 92.8936 134.34C91.8374 134.499 90.7577 134.334 89.7974 133.867C88.5648 133.264 87.804 132.104 86.7488 131.272C86.1568 130.805 86.9914 129.981 87.5777 130.443C88.6084 131.256 89.3433 132.438 90.5988 132.937C91.9429 133.471 93.2512 133.199 94.4703 132.496C95.453 131.93 96.3688 131.282 97.4971 131.036C98.6657 130.785 99.8821 130.877 100.999 131.302C101.7 131.563 101.397 132.696 100.688 132.433H100.688Z" fill="#F2F2F2"/>
<path id="Vector_26" d="M100.688 137.903C99.9792 137.625 99.2172 137.511 98.4582 137.568C97.6993 137.625 96.963 137.852 96.3041 138.233C95.1923 138.854 94.1837 139.613 92.8936 139.811C91.8374 139.97 90.7577 139.805 89.7974 139.338C88.5648 138.735 87.804 137.575 86.7488 136.743C86.1568 136.276 86.9914 135.452 87.5777 135.914C88.6084 136.727 89.3433 137.908 90.5988 138.408C91.9429 138.942 93.2512 138.669 94.4703 137.967C95.453 137.401 96.3688 136.753 97.4971 136.507C98.6657 136.255 99.8821 136.348 100.999 136.773C101.7 137.033 101.397 138.167 100.688 137.903H100.688Z" fill="#F2F2F2"/>
<path id="Vector_27" d="M100.688 143.374C99.9792 143.096 99.2172 142.981 98.4582 143.038C97.6993 143.095 96.963 143.323 96.3041 143.703C95.1923 144.325 94.1837 145.083 92.8936 145.281C91.8374 145.441 90.7577 145.276 89.7974 144.808C88.5648 144.205 87.804 143.045 86.7488 142.213C86.1568 141.747 86.9914 140.922 87.5777 141.384C88.6084 142.197 89.3433 143.379 90.5988 143.878C91.9429 144.413 93.2512 144.14 94.4703 143.438C95.453 142.871 96.3688 142.223 97.4971 141.977C98.6657 141.726 99.8821 141.818 100.999 142.243C101.7 142.504 101.397 143.637 100.688 143.374H100.688Z" fill="#F2F2F2"/>
<path id="Vector_28" d="M142.408 34.332C137.88 26.6805 128.921 26.3239 128.921 26.3239C128.921 26.3239 120.191 25.2075 114.59 36.8609C109.371 47.7228 102.166 58.2102 113.431 60.7529L115.465 54.4202L116.725 61.2244C118.329 61.3397 119.938 61.3672 121.545 61.3067C133.608 60.9173 145.096 61.4207 144.726 57.0919C144.235 51.3375 146.765 41.6943 142.408 34.332Z" fill="#2F2E41"/>
<path id="Vector_29" d="M111.494 106.989L96.2223 117.594C96.2223 117.594 87.3137 126.927 93.677 126.927C100.04 126.927 102.586 118.867 102.586 118.867L122.1 110.383L111.494 106.989Z" fill="#FFB8B8"/>
<path id="Vector_30" d="M117.645 65.6279C117.645 65.6279 104.282 106.989 108.525 109.11C112.767 111.231 122.099 112.504 122.099 112.504L117.645 65.6279Z" fill="#D0CDE1"/>
<path id="Vector_31" opacity="0.1" d="M117.645 65.6279C117.645 65.6279 104.282 106.989 108.525 109.11C112.767 111.231 122.099 112.504 122.099 112.504L117.645 65.6279Z" fill="black"/>
<path id="Vector_32" d="M164.254 160.876L150.984 183.861L148.456 182.401C143.624 163.866 137.796 141.774 137.796 141.774L123.207 167.824L104.359 156.941C108.87 147.229 116.584 124.381 116.584 124.381L150.947 106.989C150.947 106.989 161.976 113.776 162.4 130.321C162.824 146.866 162.824 156.623 162.824 156.623C162.824 156.623 163.385 158.235 164.254 160.876Z" fill="#2F2E41"/>
<path id="Vector_33" d="M126.13 55.0224C132.221 55.0224 137.159 50.0843 137.159 43.9928C137.159 37.9013 132.221 32.9631 126.13 32.9631C120.038 32.9631 115.1 37.9013 115.1 43.9928C115.1 50.0843 120.038 55.0224 126.13 55.0224Z" fill="#FFB8B8"/>
<path id="Vector_34" d="M125.917 53.1135C125.917 53.1135 128.463 61.1736 125.917 64.1431C123.372 67.1126 139.917 59.9009 139.917 59.9009C139.917 59.9009 133.977 51.4166 135.674 47.5986L125.917 53.1135Z" fill="#FFB8B8"/>
<path id="Vector_35" d="M141.602 54.8706C141.292 55.3731 140.941 55.8495 140.553 56.2951C140.129 56.7193 137.583 57.1435 137.159 57.9919C136.735 58.8404 130.48 60.0497 130.48 60.0497L128.251 60.9615C128.251 60.9615 117.645 63.5068 117.645 65.6278C117.645 67.7489 116.797 74.1122 116.797 74.1122C116.797 74.1122 113.403 77.9301 115.524 87.2629C116.341 90.8589 117.481 97.8348 116.842 105.228C115.823 117.023 112.819 129.751 115.948 130.533C121.039 131.806 135.462 132.23 140.129 125.867C144.795 119.503 145.219 113.989 150.31 113.564C155.401 113.14 149.461 95.7473 149.461 95.7473L155.825 54.174C155.825 54.174 145.196 50.4765 141.602 54.8706Z" fill="#D0CDE1"/>
<path id="Vector_36" d="M128.791 121.125H149.95C151.394 112.777 151.394 104.244 149.95 95.8965H128.791C131.175 104.137 131.175 112.884 128.791 121.125Z" fill="#FF6584"/>
<path id="Vector_37" d="M133.191 104.493C133.9 104.215 134.662 104.101 135.421 104.158C136.18 104.215 136.916 104.442 137.575 104.823C138.687 105.444 139.695 106.203 140.985 106.401C142.041 106.56 143.121 106.395 144.081 105.928C145.314 105.325 146.075 104.165 147.13 103.333C147.722 102.866 146.888 102.042 146.301 102.504C145.271 103.317 144.536 104.498 143.28 104.998C141.936 105.532 140.628 105.26 139.409 104.557C138.426 103.991 137.51 103.343 136.382 103.097C135.213 102.845 133.997 102.938 132.88 103.363C132.179 103.623 132.482 104.757 133.191 104.493Z" fill="#F2F2F2"/>
<path id="Vector_38" d="M133.191 109.964C133.9 109.686 134.662 109.571 135.421 109.628C136.18 109.685 136.916 109.913 137.575 110.293C138.687 110.915 139.695 111.673 140.985 111.871C142.041 112.031 143.121 111.866 144.081 111.398C145.314 110.796 146.075 109.635 147.13 108.803C147.722 108.337 146.888 107.512 146.301 107.975C145.271 108.787 144.536 109.969 143.28 110.468C141.936 111.003 140.628 110.73 139.409 110.028C138.426 109.462 137.51 108.814 136.382 108.567C135.213 108.316 133.997 108.408 132.88 108.834C132.179 109.094 132.482 110.228 133.191 109.964Z" fill="#F2F2F2"/>
<path id="Vector_39" d="M163.673 80.6876L148.401 91.2931C148.401 91.2931 139.492 100.626 145.856 100.626C152.219 100.626 154.764 92.5657 154.764 92.5657L174.278 84.0814L163.673 80.6876Z" fill="#FFB8B8"/>
<path id="Vector_40" d="M137.437 33.5944L128.586 28.9581L123.032 29.8198C121.065 30.1251 119.235 31.0147 117.78 32.3731C116.325 33.7316 115.312 35.4961 114.872 37.4377L113.834 42.024L120.129 41.7819L121.888 37.6784V41.7142L124.792 41.6025L126.478 35.0696L127.532 42.024L137.858 41.8133L137.437 33.5944Z" fill="#2F2E41"/>
<path id="Vector_41" d="M152.855 55.0225L155.825 54.1741C155.825 54.1741 185.944 66.4764 185.096 77.0818C184.247 87.6873 185.52 87.6873 180.429 88.1115C175.339 88.5357 160.491 83.4451 160.915 82.5966C161.34 81.7482 164.309 77.506 164.309 77.506L152.855 68.5975V55.0225Z" fill="#D0CDE1"/>
<path id="Vector_42" d="M137.159 45.6896C138.096 45.6896 138.856 44.9299 138.856 43.9928C138.856 43.0556 138.096 42.2959 137.159 42.2959C136.222 42.2959 135.462 43.0556 135.462 43.9928C135.462 44.9299 136.222 45.6896 137.159 45.6896Z" fill="#FFB8B8"/>
</g>
<g id=" box3">
<path id="Vector_43" d="M58.87 106.055L126.202 105.835L126.145 88.4994L58.8133 88.7196L58.87 106.055Z" fill="#72717C"/>
<path id="Vector_44" d="M118.127 101.884C120.732 101.884 122.844 99.7723 122.844 97.1672C122.844 94.5621 120.732 92.4502 118.127 92.4502C115.522 92.4502 113.41 94.5621 113.41 97.1672C113.41 99.7723 115.522 101.884 118.127 101.884Z" fill="#FF6584"/>
<path id="Vector_45" d="M88.7069 94.6737L108.222 94.6099L108.218 93.2225L88.7024 93.2863L88.7069 94.6737Z" fill="white"/>
<path id="Vector_46" d="M65.2257 98.0801L108.233 97.9395L108.229 96.5521L65.2211 96.6928L65.2257 98.0801Z" fill="white"/>
<path id="Vector_47" d="M65.2366 101.41L108.244 101.269L108.24 99.8818L65.2321 100.022L65.2366 101.41Z" fill="white"/>
</g>
<g id=" box1">
<path id="Vector_48" d="M126.203 129.059L61.6038 128.848L61.5494 145.48L126.148 145.691L126.203 129.059Z" fill="#72717C"/>
<path id="Vector_49" d="M69.296 141.69C71.7954 141.69 73.8215 139.663 73.8215 137.164C73.8215 134.665 71.7954 132.639 69.296 132.639C66.7966 132.639 64.7705 134.665 64.7705 137.164C64.7705 139.663 66.7966 141.69 69.296 141.69Z" fill="#FF6584"/>
<path id="Vector_50" d="M97.526 133.441L78.803 133.38L78.7986 134.711L97.5217 134.772L97.526 133.441Z" fill="white"/>
<path id="Vector_51" d="M120.054 136.709L78.7925 136.574L78.7881 137.905L120.05 138.04L120.054 136.709Z" fill="white"/>
<path id="Vector_52" d="M120.044 139.903L78.7822 139.768L78.7779 141.099L120.04 141.234L120.044 139.903Z" fill="white"/>
</g>
</g>
</g>
</svg>
