<svg width="500" height="500" viewBox="0 0 500 500" fill="none" xmlns="http://www.w3.org/2000/svg">
<path d="M466.89 316.2H303V221.36H466.89V316.2ZM304 315.2H465.89V222.36H304V315.2Z" fill="#E0E0E0"/>
<path d="M433.08 271.93H324.95V275.1H433.08V271.93Z" fill="#F0F0F0"/>
<path d="M440.53 283.75H324.95V287.21H440.53V283.75Z" fill="#F0F0F0"/>
<path d="M440.53 295.71H324.95V299.17H440.53V295.71Z" fill="#F0F0F0"/>
<path d="M362.74 254.76H324.95V262.99H362.74V254.76Z" fill="#F0F0F0"/>
<path d="M466.39 221.86H303.53V236.96H466.39V221.86Z" fill="#E0E0E0"/>
<path d="M453.86 234.7C453.65 234.5 455.75 231.97 458.54 229.05C461.33 226.13 463.78 223.92 463.98 224.11C464.18 224.3 462.09 226.84 459.3 229.77C456.51 232.7 454.06 234.9 453.86 234.7Z" fill="white"/>
<path d="M464 234.7C463.8 234.9 461.36 232.7 458.56 229.77C455.76 226.84 453.67 224.31 453.88 224.11C454.09 223.91 456.52 226.11 459.32 229.05C462.12 231.99 464.19 234.5 464 234.7Z" fill="white"/>
<path d="M265.22 34.05H102.36V127.9H265.22V34.05Z" fill="#E6E6E6"/>
<path d="M231.92 84.13H123.79V87.3H231.92V84.13Z" fill="#F0F0F0"/>
<path d="M239.37 95.95H123.79V99.41H239.37V95.95Z" fill="#F0F0F0"/>
<path d="M239.37 107.91H123.79V111.37H239.37V107.91Z" fill="#F0F0F0"/>
<path d="M161.58 66.96H123.79V75.19H161.58V66.96Z" fill="#F0F0F0"/>
<path d="M265.22 34.05H102.36V49.15H265.22V34.05Z" fill="#E0E0E0"/>
<path d="M252.14 46.82C251.93 46.63 254.03 44.09 256.82 41.17C259.61 38.25 262.06 36.04 262.26 36.24C262.46 36.44 260.37 38.97 257.58 41.89C254.79 44.81 252.34 47 252.14 46.82Z" fill="white"/>
<path d="M262.26 46.82C262.06 47.02 259.62 44.82 256.82 41.89C254.02 38.96 251.93 36.44 252.14 36.24C252.35 36.04 254.78 38.24 257.58 41.17C260.38 44.1 262.47 46.63 262.26 46.82Z" fill="white"/>
<path d="M203.54 208.39H39.6799V113.54H203.54V208.39ZM40.6799 207.39H202.54V114.54H40.6799V207.39Z" fill="#E0E0E0"/>
<path d="M169.74 164.12H61.6099V167.29H169.74V164.12Z" fill="#F0F0F0"/>
<path d="M177.19 175.94H61.6099V179.4H177.19V175.94Z" fill="#F0F0F0"/>
<path d="M177.19 187.9H61.6099V191.36H177.19V187.9Z" fill="#F0F0F0"/>
<path d="M99.3999 146.95H61.6099V155.18H99.3999V146.95Z" fill="#F0F0F0"/>
<path d="M203.04 114.04H40.1799V129.14H203.04V114.04Z" fill="#E0E0E0"/>
<path d="M392.65 230.12H200.35V402.28H392.65V230.12Z" fill="#E6E6E6"/>
<path d="M210.02 175.89H59.3799V332.4H210.02V175.89Z" fill="#F0F0F0"/>
<path d="M210.02 175.89H59.3799V192.94H210.02V175.89Z" fill="#E0E0E0"/>
<path d="M71.8198 184.24C71.7924 184.858 71.584 185.455 71.2206 185.956C70.8571 186.457 70.3545 186.84 69.7752 187.058C69.196 187.276 68.5655 187.319 67.962 187.181C67.3585 187.044 66.8086 186.733 66.3806 186.286C65.9525 185.839 65.6652 185.276 65.5542 184.667C65.4432 184.058 65.5134 183.43 65.7561 182.861C65.9989 182.291 66.4034 181.806 66.9196 181.464C67.4358 181.123 68.0409 180.941 68.6598 180.94C69.5157 180.961 70.3284 181.32 70.9205 181.938C71.5126 182.557 71.8359 183.384 71.8198 184.24V184.24Z" fill="white"/>
<path d="M84.6498 184.24C84.6243 184.861 84.4167 185.461 84.0528 185.965C83.6889 186.469 83.1848 186.855 82.6032 187.075C82.0216 187.295 81.3882 187.339 80.7819 187.202C80.1755 187.064 79.6229 186.751 79.1929 186.302C78.7629 185.853 78.4745 185.288 78.3634 184.676C78.2524 184.064 78.3238 183.433 78.5686 182.862C78.8134 182.29 79.2208 181.803 79.7402 181.462C80.2597 181.12 80.8681 180.939 81.4898 180.94C82.3457 180.961 83.1584 181.32 83.7505 181.938C84.3426 182.556 84.6659 183.384 84.6498 184.24V184.24Z" fill="white"/>
<path d="M97.4799 184.24C97.4544 184.861 97.2468 185.461 96.8829 185.965C96.519 186.469 96.0149 186.855 95.4333 187.075C94.8517 187.295 94.2183 187.339 93.612 187.202C93.0056 187.064 92.453 186.751 92.023 186.302C91.593 185.853 91.3045 185.288 91.1935 184.676C91.0825 184.064 91.1538 183.433 91.3986 182.862C91.6434 182.29 92.0509 181.803 92.5703 181.462C93.0897 181.12 93.6982 180.939 94.3199 180.94C95.1758 180.961 95.9885 181.32 96.5806 181.938C97.1727 182.556 97.496 183.384 97.4799 184.24V184.24Z" fill="white"/>
<path d="M445.38 68.28H253.08V259.94H445.38V68.28Z" fill="#F0F0F0"/>
<path d="M445.38 68.28H253.08V90.73H445.38V68.28Z" fill="#E0E0E0"/>
<path d="M269.46 79.28C269.425 80.0961 269.15 80.884 268.671 81.5456C268.192 82.2073 267.529 82.7137 266.765 83.0019C266.001 83.2901 265.168 83.3474 264.372 83.1667C263.575 82.9861 262.849 82.5754 262.284 81.9857C261.718 81.396 261.339 80.6532 261.192 79.8496C261.045 79.046 261.137 78.2169 261.458 77.4654C261.778 76.7138 262.312 76.0729 262.993 75.6222C263.674 75.1714 264.473 74.9308 265.29 74.93C266.419 74.9562 267.492 75.4287 268.273 76.2439C269.055 77.0592 269.481 78.1509 269.46 79.28V79.28Z" fill="white"/>
<path d="M285.13 76.34C285.684 76.942 286.049 77.6939 286.179 78.5019C286.309 79.3099 286.199 80.1383 285.861 80.8839C285.524 81.6295 284.975 82.2594 284.282 82.695C283.589 83.1306 282.783 83.3527 281.965 83.3336C281.147 83.3145 280.352 83.0551 279.681 82.5876C279.009 82.1202 278.489 81.4654 278.187 80.7049C277.885 79.9443 277.813 79.1116 277.981 78.3106C278.148 77.5095 278.548 76.7755 279.13 76.2C279.945 75.4244 281.034 75.0037 282.159 75.0299C283.284 75.0561 284.352 75.5273 285.13 76.34V76.34Z" fill="white"/>
<path d="M303.24 79.28C303.205 80.0961 302.93 80.884 302.451 81.5456C301.972 82.2073 301.309 82.7137 300.545 83.0019C299.781 83.2901 298.948 83.3474 298.152 83.1667C297.355 82.9861 296.629 82.5754 296.064 81.9857C295.498 81.396 295.119 80.6532 294.972 79.8496C294.825 79.046 294.917 78.2169 295.238 77.4654C295.558 76.7138 296.092 76.0729 296.773 75.6222C297.454 75.1714 298.253 74.9308 299.07 74.93C300.199 74.9562 301.272 75.4287 302.053 76.2439C302.835 77.0592 303.261 78.1509 303.24 79.28V79.28Z" fill="white"/>
<path d="M403.84 453.13C403.84 453.27 334.4 453.39 248.77 453.39C163.14 453.39 93.6699 453.27 93.6699 453.13C93.6699 452.99 163.1 452.87 248.77 452.87C334.44 452.87 403.84 453 403.84 453.13Z" fill="#263238"/>
<path d="M336.18 330.71C320.73 319.92 317.23 299.89 317.84 281.88C317.94 278.88 317.61 275.7 319.04 273.07C320.47 270.44 323.81 268.63 326.5 269.89C328.73 270.94 329.7 273.54 330.95 275.69C332.618 278.554 335.062 280.887 338 282.42C339.91 283.42 342.28 284.02 344.17 282.98C346.77 281.55 347.07 277.98 347.05 274.98C347.05 269.4 347.017 263.827 346.95 258.26C346.77 255.271 347.074 252.272 347.85 249.38C348.78 246.54 350.85 243.91 353.68 243.11C356.51 242.31 360.04 243.96 360.68 246.88C360.79 248.117 360.82 249.359 360.77 250.6C360.85 251.85 361.43 253.22 362.6 253.6C363.77 253.98 364.99 253.11 365.89 252.23C368.97 249.23 371.07 245.32 373.02 241.46C374.97 237.6 376.88 233.63 379.68 230.34C382.48 227.05 386.35 224.44 390.68 224.19C395.01 223.94 399.52 226.6 400.6 230.8C401.68 235 399.23 239.29 396.6 242.7C392.631 247.762 387.953 252.224 382.71 255.95C381.686 256.509 380.87 257.382 380.38 258.44C379.73 260.44 381.62 262.44 383.59 263.07C385.82 263.81 388.24 263.58 390.59 263.86C392.94 264.14 395.44 265.16 396.33 267.36C397.55 270.42 394.99 273.62 392.48 275.72C387.44 279.92 381.717 283.225 375.56 285.49C373.36 286.29 371.05 287 369.27 288.54C367.49 290.08 366.43 292.77 367.5 294.88C368.57 296.99 371.32 297.66 373.63 297.23C375.94 296.8 377.99 295.56 380.19 294.73C384.3 293.18 389.6 293.46 392.19 297.01C392.992 298.233 393.5 299.625 393.674 301.077C393.847 302.53 393.682 304.002 393.19 305.38C392.189 308.121 390.649 310.634 388.66 312.77C382.11 320.595 373.6 326.541 364 330C354.47 333.3 345.64 334.2 336.17 330.73" fill="#407BFF"/>
<path d="M396.2 226.66C396.2 226.66 396.11 226.76 395.91 226.94L395.02 227.73C394.24 228.43 393.09 229.45 391.64 230.8C387.529 234.617 383.711 238.739 380.22 243.13C377.99 245.9 375.68 249.04 373.22 252.45C370.76 255.86 368.22 259.54 365.7 263.45C363.013 267.573 360.553 271.839 358.33 276.23C357.17 278.52 356.15 280.91 355.1 283.35L352 290.8C347.914 300.184 344.355 309.789 341.34 319.57C338.911 327.573 337.237 335.785 336.34 344.1C335.758 349.711 335.665 355.362 336.06 360.99C336.22 362.99 336.37 364.52 336.51 365.56C336.57 366.06 336.61 366.46 336.65 366.75V367.16C336.607 367.03 336.577 366.896 336.56 366.76C336.51 366.47 336.45 366.08 336.37 365.58C336.19 364.58 336 363 335.82 361C335.337 355.362 335.371 349.692 335.92 344.06C336.762 335.71 338.399 327.459 340.81 319.42C343.799 309.612 347.349 299.982 351.44 290.58L354.62 283.16C355.67 280.73 356.7 278.32 357.87 276.02C360.108 271.616 362.589 267.34 365.3 263.21C367.86 259.21 370.44 255.59 372.87 252.21C375.3 248.83 377.65 245.67 379.87 242.91C383.397 238.53 387.266 234.438 391.44 230.67C392.92 229.34 394.1 228.34 394.9 227.67L395.83 226.92C395.944 226.821 396.068 226.734 396.2 226.66V226.66Z" fill="#263238"/>
<path d="M358 276C357.859 275.588 357.762 275.162 357.71 274.73C357.55 273.9 357.37 272.73 357.16 271.21C356.73 268.21 356.29 264.1 355.82 259.55C355.35 255 354.82 250.88 354.38 247.91C354.15 246.43 353.95 245.24 353.81 244.41C353.701 243.985 353.644 243.549 353.64 243.11C353.812 243.511 353.936 243.93 354.01 244.36C354.23 245.18 354.48 246.36 354.76 247.85C355.33 250.85 355.89 254.93 356.36 259.49C356.83 264.05 357.23 268.05 357.54 271.16C357.69 272.56 357.82 273.75 357.92 274.7C357.998 275.129 358.024 275.565 358 276V276Z" fill="#263238"/>
<path d="M396.48 268.82C395.993 268.926 395.498 268.986 395 269C394 269.09 392.58 269.21 390.82 269.41C387.3 269.79 382.46 270.49 377.15 271.49C371.84 272.49 367.07 273.62 363.64 274.49C361.93 274.93 360.55 275.33 359.64 275.6C359.154 275.773 358.651 275.893 358.14 275.96C358.602 275.728 359.084 275.537 359.58 275.39C360.52 275.06 361.88 274.6 363.58 274.11C366.99 273.11 371.76 271.92 377.09 270.9C381.605 270.037 386.161 269.402 390.74 269C392.51 268.85 393.94 268.79 394.94 268.77C395.454 268.735 395.97 268.752 396.48 268.82Z" fill="#263238"/>
<path d="M341.3 318.72C341.193 318.575 341.106 318.417 341.04 318.25L340.38 316.86C339.81 315.65 339.04 313.86 338.12 311.67C336.26 307.27 333.89 301.11 331.37 294.27C328.85 287.43 326.53 281.27 324.77 276.82C323.91 274.66 323.2 272.89 322.67 271.57L322.11 270.14C322.032 269.975 321.978 269.8 321.95 269.62C322.057 269.765 322.144 269.923 322.21 270.09L322.87 271.48C323.43 272.69 324.21 274.48 325.13 276.67C326.99 281.07 329.36 287.23 331.88 294.07C334.4 300.91 336.72 307.07 338.48 311.52C339.34 313.68 340.05 315.45 340.57 316.77C340.8 317.34 340.99 317.77 341.14 318.2C341.218 318.365 341.271 318.54 341.3 318.72V318.72Z" fill="#263238"/>
<path d="M392.38 302.25C392.22 302.342 392.048 302.412 391.87 302.46L390.39 302.96L384.92 304.73C380.3 306.23 373.92 308.37 366.92 310.73C359.92 313.09 353.51 315.19 348.86 316.59C346.54 317.3 344.65 317.84 343.34 318.2L341.83 318.59C341.654 318.646 341.473 318.683 341.29 318.7C341.45 318.608 341.622 318.537 341.8 318.49L343.28 317.99L348.75 316.22C353.37 314.72 359.75 312.58 366.75 310.22C373.75 307.86 380.15 305.76 384.8 304.36C387.13 303.65 389.01 303.11 390.33 302.75L391.84 302.36C392.016 302.304 392.197 302.267 392.38 302.25V302.25Z" fill="#263238"/>
<path d="M371.54 59.68L366.39 61.52L364.18 54.79C360.12 42.38 347.18 35.79 335.29 39.98C323.4 44.17 317.07 57.78 321.13 70.19L323.34 76.92L318.17 78.77C316.199 79.5347 314.598 81.0296 313.7 82.9441C312.802 84.8587 312.677 87.0455 313.35 89.05L327.68 132.84C327.978 133.832 328.471 134.755 329.132 135.552C329.793 136.35 330.608 137.007 331.528 137.483C332.447 137.96 333.454 138.247 334.487 138.327C335.519 138.407 336.558 138.279 337.54 137.95L390.91 118.86C392.908 118.097 394.531 116.588 395.439 114.653C396.348 112.717 396.47 110.504 395.78 108.48L381.44 64.69C381.135 63.7005 380.633 62.7825 379.966 61.991C379.298 61.1995 378.478 60.5505 377.554 60.083C376.63 59.6154 375.621 59.3387 374.588 59.2695C373.555 59.2003 372.518 59.3399 371.54 59.68V59.68ZM330.86 66.68C329.765 63.4532 329.962 59.928 331.408 56.8429C332.855 53.7577 335.439 51.3521 338.62 50.13C340.191 49.5926 341.853 49.3772 343.509 49.4964C345.165 49.6156 346.78 50.0672 348.257 50.8241C349.734 51.581 351.044 52.6277 352.108 53.9018C353.172 55.176 353.969 56.6514 354.45 58.24L356.65 64.97L333.06 73.41L330.86 66.68ZM360.86 105.54L364.52 116.72C364.587 116.944 364.566 117.186 364.459 117.394C364.353 117.603 364.171 117.762 363.95 117.84L358.82 119.67C358.616 119.727 358.398 119.702 358.211 119.601C358.025 119.501 357.885 119.332 357.82 119.13L354.13 108C352.095 107.889 350.143 107.159 348.535 105.908C346.926 104.657 345.738 102.945 345.13 101C344.26 98.4289 344.419 95.6211 345.573 93.1644C346.727 90.7076 348.786 88.7925 351.32 87.82C352.571 87.3925 353.896 87.2213 355.214 87.3166C356.533 87.4118 357.819 87.7716 358.996 88.3744C360.172 88.9772 361.216 89.8108 362.064 90.8254C362.911 91.84 363.546 93.0149 363.93 94.28C364.573 96.2556 364.627 98.3759 364.083 100.381C363.54 102.387 362.423 104.19 360.87 105.57L360.86 105.54Z" fill="#407BFF"/>
<path d="M366.16 61.4C366.16 61.54 356.61 65.13 344.73 69.4C332.85 73.67 323.16 77.1 323.11 77C323.06 76.9 332.66 73.28 344.55 69C356.44 64.72 366.11 61.27 366.16 61.4Z" fill="#263238"/>
<path d="M377.5 63.24C377.544 63.3268 377.581 63.4171 377.61 63.51C377.69 63.71 377.78 63.97 377.9 64.29C378.16 65.02 378.52 66.03 378.97 67.29L382.81 78.47C384.41 83.21 386.32 88.83 388.44 95.07C389.44 98.2 390.62 101.46 391.72 104.89C392.309 106.658 392.563 108.519 392.47 110.38C392.385 111.348 392.11 112.289 391.66 113.15C391.179 114.008 390.538 114.765 389.77 115.38C388.225 116.508 386.51 117.382 384.69 117.97L379.54 119.82L369.79 123.31L353.28 129.19L342.13 133.11L339.13 134.11L338.33 134.37C338.245 134.408 338.153 134.432 338.06 134.44C338.06 134.44 338.14 134.44 338.31 134.32L339.09 134.01L342.09 132.88L353.18 128.8L369.66 122.8L379.39 119.28L384.54 117.42C386.309 116.856 387.974 116.008 389.47 114.91C390.184 114.34 390.782 113.637 391.23 112.84C391.654 112.044 391.909 111.169 391.98 110.27C392.072 108.477 391.828 106.683 391.26 104.98C390.18 101.58 389.04 98.29 388.01 95.16C385.93 88.91 384.01 83.27 382.49 78.53C380.97 73.79 379.69 69.98 378.81 67.3C378.39 65.99 378.07 64.97 377.81 64.23L377.57 63.43C377.54 63.3694 377.516 63.3057 377.5 63.24V63.24Z" fill="#263238"/>
<path d="M349.34 49.45C349.34 49.45 348.81 49.19 347.83 48.79C346.433 48.2533 344.956 47.9558 343.46 47.91C341.243 47.834 339.037 48.2506 337 49.13C334.524 50.225 332.406 51.9961 330.89 54.24C329.364 56.4775 328.546 59.1217 328.54 61.83C328.561 64.0497 328.898 66.2552 329.54 68.38C330.06 70.2 330.6 71.65 330.96 72.66C331.173 73.173 331.346 73.7011 331.48 74.24C331.196 73.7603 330.958 73.2547 330.77 72.73C330.36 71.73 329.77 70.31 329.19 68.48C328.478 66.3329 328.091 64.0915 328.04 61.83C328.014 59.0194 328.851 56.2686 330.44 53.95C332.009 51.6241 334.213 49.7982 336.79 48.69C338.89 47.8058 341.165 47.4158 343.44 47.55C344.968 47.6279 346.47 47.9837 347.87 48.6C348.245 48.7728 348.606 48.9733 348.95 49.2C349.092 49.2625 349.224 49.3468 349.34 49.45V49.45Z" fill="#263238"/>
<path d="M349.8 88.58C349.96 88.4833 350.127 88.3997 350.3 88.33C350.801 88.1041 351.319 87.9201 351.85 87.78C352.693 87.5312 353.562 87.3835 354.44 87.34C355.634 87.2758 356.828 87.4562 357.95 87.87C360.51 88.77 362.86 91.38 364.02 94.87C364.576 96.7429 364.576 98.7371 364.02 100.61C363.403 102.643 362.298 104.493 360.8 106L360.86 105.73C362.19 109.38 363.64 113.34 365.14 117.47L365.23 117.72L364.98 117.81L362.69 118.57L357.69 120.24L357.44 120.32L357.36 120.07C355.99 115.93 354.49 112.07 353.36 108.28L353.58 108.45C351.625 108.288 349.761 107.554 348.22 106.34C346.826 105.266 345.683 103.901 344.87 102.34C344.137 100.956 343.772 99.406 343.81 97.84C343.856 96.2394 344.256 94.6689 344.98 93.2409C345.705 91.8129 346.736 90.5628 348 89.58C348.52 89.1576 349.104 88.8201 349.73 88.58C349.165 88.9151 348.618 89.2789 348.09 89.67C346.701 90.8448 345.638 92.3564 345 94.06C344.453 95.3446 344.197 96.7345 344.251 98.1297C344.304 99.525 344.666 100.891 345.31 102.13C346.109 103.632 347.225 104.942 348.58 105.97C350.05 107.124 351.827 107.819 353.69 107.97H353.86L353.91 108.12C355.01 111.84 356.52 115.73 357.91 119.89L357.58 119.73L362.58 118.06L364.86 117.29L364.7 117.63C363.21 113.5 361.77 109.53 360.45 105.88V105.73L360.57 105.61C362.024 104.166 363.108 102.392 363.73 100.44C364.26 98.6484 364.26 96.7416 363.73 94.95C362.64 91.59 360.39 89.04 357.95 88.14C356.87 87.7235 355.717 87.5296 354.56 87.57C353.696 87.5898 352.837 87.7072 352 87.92C350.51 88.29 349.81 88.63 349.8 88.58Z" fill="#263238"/>
<path d="M318.89 377.32L219 376.86C213.231 376.828 207.711 374.508 203.652 370.41C199.593 366.311 197.326 360.769 197.35 355L198.41 104.59C198.422 101.732 198.997 98.9044 200.102 96.2688C201.207 93.6332 202.821 91.2412 204.851 89.2296C206.881 87.218 209.288 85.6263 211.934 84.5453C214.579 83.4644 217.412 82.9155 220.27 82.93L320.15 83.39C325.919 83.4191 331.44 85.7365 335.501 89.8333C339.562 93.9302 341.831 99.4714 341.81 105.24L340.75 355.64C340.738 358.499 340.163 361.327 339.059 363.964C337.954 366.601 336.34 368.994 334.31 371.007C332.28 373.021 329.874 374.614 327.228 375.697C324.582 376.78 321.749 377.332 318.89 377.32V377.32Z" fill="#455A64"/>
<path d="M320 92H300.64C300.008 92.0117 299.385 92.1477 298.806 92.4004C298.227 92.653 297.703 93.0172 297.265 93.4722C296.827 93.9272 296.482 94.4642 296.251 95.0523C296.021 95.6405 295.908 96.2683 295.92 96.9V100.41C295.932 101.041 295.819 101.669 295.588 102.256C295.357 102.844 295.013 103.38 294.574 103.834C294.136 104.288 293.612 104.652 293.033 104.903C292.454 105.155 291.831 105.29 291.2 105.3L253.46 105.13C252.183 105.096 250.972 104.557 250.093 103.63C249.213 102.704 248.738 101.467 248.77 100.19V96.68C248.802 95.4049 248.328 94.169 247.451 93.2431C246.573 92.3171 245.365 91.7766 244.09 91.74H237.28L220.33 91.66C216.298 91.636 212.421 93.2105 209.548 96.0387C206.675 98.867 205.04 102.719 205 106.75L204 351.17C203.991 353.17 204.376 355.152 205.132 357.004C205.889 358.855 207.003 360.539 208.411 361.96C209.819 363.381 211.493 364.51 213.337 365.284C215.181 366.058 217.16 366.461 219.16 366.47L318.84 366.93C320.841 366.939 322.825 366.554 324.677 365.797C326.53 365.039 328.215 363.925 329.637 362.516C331.058 361.107 332.189 359.432 332.963 357.587C333.737 355.741 334.141 353.761 334.15 351.76L335.15 107.34C335.174 103.297 333.591 99.4102 330.751 96.5337C327.91 93.6572 324.043 92.0264 320 92V92Z" fill="white"/>
<path d="M306.59 334.32L232.47 334C231.7 334 231.08 333.16 231.09 332.14L231.17 312.75C231.17 311.75 231.8 310.89 232.57 310.89L306.69 311.23C307.117 311.304 307.498 311.539 307.755 311.888C308.013 312.236 308.125 312.671 308.07 313.1L308 332.47C308 333.5 307.36 334.33 306.59 334.32Z" fill="#407BFF"/>
<path d="M255.086 324.7C254.664 324.7 254.257 324.632 253.867 324.497C253.482 324.361 253.184 324.182 252.972 323.96L253.208 323.496C253.414 323.702 253.688 323.87 254.029 324C254.371 324.125 254.723 324.188 255.086 324.188C255.596 324.188 255.978 324.095 256.233 323.911C256.488 323.721 256.615 323.477 256.615 323.179C256.615 322.952 256.545 322.77 256.404 322.634C256.268 322.499 256.1 322.396 255.9 322.325C255.699 322.25 255.42 322.168 255.062 322.082C254.634 321.973 254.292 321.87 254.037 321.773C253.783 321.67 253.563 321.515 253.379 321.309C253.2 321.103 253.11 320.824 253.11 320.472C253.11 320.184 253.186 319.924 253.338 319.691C253.49 319.452 253.723 319.263 254.037 319.122C254.352 318.981 254.742 318.91 255.208 318.91C255.534 318.91 255.851 318.956 256.16 319.049C256.474 319.135 256.745 319.257 256.973 319.414L256.77 319.894C256.531 319.737 256.276 319.62 256.005 319.545C255.734 319.463 255.469 319.423 255.208 319.423C254.71 319.423 254.333 319.52 254.078 319.715C253.829 319.905 253.704 320.152 253.704 320.455C253.704 320.683 253.772 320.867 253.907 321.008C254.048 321.144 254.222 321.249 254.428 321.325C254.639 321.396 254.921 321.474 255.273 321.561C255.691 321.664 256.027 321.767 256.282 321.87C256.542 321.968 256.761 322.119 256.94 322.325C257.119 322.526 257.209 322.8 257.209 323.147C257.209 323.434 257.13 323.697 256.973 323.935C256.821 324.169 256.585 324.356 256.265 324.497C255.946 324.632 255.553 324.7 255.086 324.7ZM258.52 318.959H259.121V324.651H258.52V318.959ZM265.73 318.959V324.651H265.234L261.575 320.032V324.651H260.973V318.959H261.469L265.137 323.578V318.959H265.73ZM271.597 321.805H272.174V323.976C271.908 324.209 271.594 324.388 271.231 324.513C270.868 324.637 270.485 324.7 270.084 324.7C269.515 324.7 269.003 324.575 268.547 324.326C268.092 324.076 267.734 323.732 267.474 323.293C267.214 322.849 267.084 322.353 267.084 321.805C267.084 321.258 267.214 320.764 267.474 320.325C267.734 319.881 268.092 319.534 268.547 319.284C269.003 319.035 269.518 318.91 270.092 318.91C270.526 318.91 270.925 318.981 271.288 319.122C271.651 319.257 271.957 319.461 272.207 319.732L271.833 320.114C271.383 319.669 270.811 319.447 270.117 319.447C269.656 319.447 269.239 319.55 268.865 319.756C268.496 319.957 268.206 320.238 267.995 320.602C267.783 320.959 267.677 321.361 267.677 321.805C267.677 322.25 267.783 322.651 267.995 323.008C268.206 323.366 268.496 323.648 268.865 323.854C269.233 324.06 269.648 324.163 270.109 324.163C270.694 324.163 271.19 324.017 271.597 323.724V321.805ZM278.298 324.7C277.561 324.7 276.986 324.488 276.574 324.066C276.162 323.643 275.956 323.027 275.956 322.22V318.959H276.558V322.195C276.558 322.857 276.707 323.35 277.005 323.675C277.303 324 277.734 324.163 278.298 324.163C278.867 324.163 279.301 324 279.599 323.675C279.897 323.35 280.046 322.857 280.046 322.195V318.959H280.632V322.22C280.632 323.027 280.426 323.643 280.014 324.066C279.607 324.488 279.035 324.7 278.298 324.7ZM284.575 318.959C285.302 318.959 285.871 319.133 286.283 319.48C286.695 319.826 286.901 320.303 286.901 320.911C286.901 321.518 286.695 321.995 286.283 322.342C285.871 322.683 285.302 322.854 284.575 322.854H283.047V324.651H282.445V318.959H284.575ZM284.559 322.325C285.123 322.325 285.554 322.203 285.852 321.96C286.15 321.71 286.299 321.361 286.299 320.911C286.299 320.45 286.15 320.097 285.852 319.854C285.554 319.604 285.123 319.48 284.559 319.48H283.047V322.325H284.559Z" fill="#E8E8E3"/>
<path d="M247.254 163.85L221.534 163.733L221.513 168.453L247.233 168.57L247.254 163.85Z" fill="#407BFF"/>
<path opacity="0.1" d="M247.254 163.85L221.534 163.733L221.513 168.453L247.233 168.57L247.254 163.85Z" fill="black"/>
<path d="M322.65 192.83C322.852 192.81 323.05 192.762 323.24 192.69C323.517 192.582 323.758 192.398 323.934 192.159C324.111 191.92 324.217 191.636 324.24 191.34C324.24 189.75 324.24 187.43 324.24 184.45C324.24 182.96 324.24 181.29 324.24 179.45C324.24 179 324.24 178.53 324.24 178.06C324.305 177.604 324.206 177.14 323.96 176.75C323.822 176.563 323.643 176.411 323.437 176.305C323.23 176.199 323.002 176.143 322.77 176.14H321.21H306.76L223.12 175.83C222.906 175.826 222.694 175.874 222.503 175.97C222.311 176.066 222.146 176.207 222.02 176.38C221.779 176.771 221.686 177.236 221.76 177.69C221.76 178.69 221.76 179.69 221.76 180.69C221.76 182.69 221.76 184.69 221.76 186.69C221.76 187.69 221.76 188.69 221.76 189.69C221.719 190.156 221.719 190.624 221.76 191.09C221.813 191.29 221.91 191.475 222.045 191.631C222.181 191.787 222.35 191.91 222.54 191.99C222.737 192.068 222.948 192.106 223.16 192.1H228.25L250.46 192.22L288.06 192.45L313.41 192.65L320.3 192.73H322.09C322.5 192.73 322.7 192.73 322.7 192.73H322.09H320.3H313.41H288.06L250.46 192.61L228.25 192.52H223.16C222.88 192.531 222.601 192.484 222.34 192.38C222.077 192.268 221.843 192.097 221.655 191.88C221.468 191.663 221.333 191.407 221.26 191.13C221.202 190.868 221.182 190.598 221.2 190.33V189.59C221.2 188.59 221.2 187.59 221.2 186.59C221.2 184.59 221.2 182.59 221.2 180.59C221.2 179.59 221.2 178.59 221.2 177.59C221.181 177.324 221.181 177.056 221.2 176.79C221.238 176.496 221.351 176.217 221.53 175.98C221.703 175.739 221.931 175.542 222.196 175.408C222.46 175.274 222.753 175.206 223.05 175.21L306.69 175.67L321.14 175.77H322.7C322.975 175.77 323.246 175.837 323.489 175.964C323.733 176.091 323.943 176.275 324.1 176.5C324.382 176.935 324.496 177.457 324.42 177.97C324.42 178.44 324.42 178.91 324.42 179.36C324.42 181.18 324.42 182.85 324.42 184.36C324.42 187.36 324.35 189.66 324.33 191.26C324.306 191.568 324.194 191.862 324.008 192.108C323.822 192.354 323.569 192.542 323.28 192.65C323.091 192.767 322.873 192.83 322.65 192.83V192.83Z" fill="#E0E0E0"/>
<path d="M276.3 180.85H229.26V185.26H276.3V180.85Z" fill="#407BFF"/>
<path opacity="0.2" d="M276.3 180.85H229.26V185.26H276.3V180.85Z" fill="white"/>
<path d="M247.079 206.909L221.359 206.792L221.337 211.512L247.057 211.629L247.079 206.909Z" fill="#407BFF"/>
<path opacity="0.1" d="M247.079 206.909L221.359 206.792L221.337 211.512L247.057 211.629L247.079 206.909Z" fill="black"/>
<path d="M322 235.89C322.202 235.865 322.402 235.828 322.6 235.78C322.879 235.691 323.136 235.543 323.354 235.347C323.571 235.15 323.744 234.909 323.86 234.64C324.018 234.236 324.079 233.802 324.04 233.37C324.04 232.89 324.04 232.37 324.04 231.79C324.04 230.63 324.04 229.31 324.04 227.79V221.44C324.088 220.98 323.986 220.517 323.75 220.12C323.503 219.712 323.115 219.41 322.66 219.27C322.162 219.181 321.655 219.154 321.15 219.19H306.76L223.41 218.88C222.962 218.881 222.529 219.045 222.193 219.341C221.856 219.637 221.638 220.045 221.58 220.49C221.58 221.44 221.58 222.49 221.58 223.49C221.58 225.49 221.58 227.49 221.58 229.49C221.58 230.49 221.58 231.49 221.58 232.49C221.543 232.957 221.563 233.428 221.64 233.89C221.765 234.295 222.022 234.648 222.37 234.89C222.74 235.124 223.173 235.236 223.61 235.21H225H227.89L250.02 235.32L287.49 235.55L312.75 235.75L319.62 235.83H321.41H322.01H321.41H319.62H312.75H287.49L250 235.79L227.87 235.71H223.52C222.979 235.742 222.443 235.598 221.99 235.3C221.535 234.985 221.203 234.522 221.05 233.99C220.96 233.482 220.934 232.965 220.97 232.45C220.97 231.45 220.97 230.45 220.97 229.45C220.97 227.45 220.97 225.45 220.97 223.45C220.97 222.45 220.97 221.45 220.97 220.45C221.043 219.878 221.322 219.353 221.755 218.972C222.187 218.591 222.744 218.38 223.32 218.38L306.67 218.84L321.06 218.95C321.596 218.917 322.134 218.954 322.66 219.06C323.18 219.23 323.618 219.586 323.89 220.06C324.149 220.5 324.261 221.012 324.21 221.52C324.21 221.99 324.21 222.45 324.21 222.91C324.21 224.72 324.21 226.38 324.21 227.91C324.21 229.44 324.21 230.73 324.21 231.91C324.21 232.48 324.21 233.01 324.21 233.5C324.246 233.947 324.174 234.397 324 234.81C323.87 235.086 323.683 235.331 323.45 235.527C323.217 235.724 322.944 235.868 322.65 235.95C322.432 235.968 322.212 235.948 322 235.89V235.89Z" fill="#E0E0E0"/>
<path d="M246.885 251.838L221.165 251.721L221.144 256.441L246.864 256.558L246.885 251.838Z" fill="#407BFF"/>
<path opacity="0.1" d="M246.885 251.838L221.165 251.721L221.144 256.441L246.864 256.558L246.885 251.838Z" fill="black"/>
<path d="M321.8 280.8C322.002 280.776 322.203 280.739 322.4 280.69C322.678 280.602 322.934 280.455 323.151 280.26C323.369 280.066 323.542 279.827 323.66 279.56C323.817 279.156 323.878 278.722 323.84 278.29C323.84 277.8 323.84 277.29 323.84 276.7C323.84 275.55 323.84 274.22 323.84 272.7V266.35C323.888 265.89 323.786 265.427 323.55 265.03C323.297 264.63 322.911 264.332 322.46 264.19C321.962 264.098 321.455 264.067 320.95 264.1H306.56L223.21 263.79C222.762 263.791 222.329 263.955 221.992 264.251C221.656 264.547 221.438 264.955 221.38 265.4C221.38 266.4 221.38 267.4 221.38 268.4C221.38 270.4 221.38 272.4 221.38 274.4C221.38 275.4 221.38 276.4 221.38 277.4C221.343 277.864 221.363 278.331 221.44 278.79C221.56 279.198 221.818 279.552 222.17 279.79C222.537 280.03 222.973 280.142 223.41 280.11H227.76L249.89 280.23L287.36 280.46L312.62 280.66L319.49 280.74H321.28C321.68 280.74 321.88 280.74 321.88 280.74C321.88 280.74 321.68 280.74 321.28 280.74H319.49H312.62H287.36L249.89 280.63L227.76 280.54H223.41C222.869 280.576 222.331 280.432 221.88 280.13C221.425 279.815 221.093 279.352 220.94 278.82C220.85 278.312 220.824 277.795 220.86 277.28C220.86 276.28 220.86 275.28 220.86 274.28C220.86 272.28 220.86 270.28 220.86 268.28C220.86 267.28 220.86 266.28 220.86 265.23C220.931 264.659 221.208 264.134 221.638 263.752C222.069 263.371 222.625 263.16 223.2 263.16L306.55 263.62L320.94 263.73C321.476 263.697 322.014 263.734 322.54 263.84C323.06 264.01 323.498 264.366 323.77 264.84C324.029 265.28 324.141 265.792 324.09 266.3C324.09 266.77 324.09 267.24 324.09 267.69C324.09 269.5 324.09 271.16 324.09 272.69C324.09 274.22 324.09 275.51 324.09 276.69C324.09 277.26 324.09 277.79 324.09 278.28C324.128 278.727 324.056 279.177 323.88 279.59C323.75 279.866 323.562 280.111 323.329 280.307C323.096 280.504 322.824 280.648 322.53 280.73C322.296 280.81 322.045 280.834 321.8 280.8V280.8Z" fill="#E0E0E0"/>
<path d="M275.296 225.157L228.256 224.943L228.236 229.353L275.276 229.567L275.296 225.157Z" fill="#407BFF"/>
<path opacity="0.2" d="M275.296 225.157L228.256 224.943L228.236 229.353L275.276 229.567L275.296 225.157Z" fill="white"/>
<path d="M232.51 272.64C232.48 273.042 232.334 273.427 232.087 273.746C231.841 274.066 231.507 274.306 231.125 274.437C230.744 274.568 230.332 274.585 229.942 274.484C229.551 274.384 229.199 274.171 228.928 273.871C228.657 273.572 228.481 273.2 228.419 272.802C228.358 272.403 228.415 271.995 228.584 271.629C228.752 271.262 229.025 270.953 229.367 270.74C229.709 270.527 230.107 270.419 230.51 270.43C231.067 270.461 231.59 270.71 231.964 271.124C232.338 271.538 232.535 272.083 232.51 272.64V272.64Z" fill="#407BFF"/>
<path d="M238.88 272.67C238.9 272.952 238.861 273.235 238.767 273.501C238.673 273.768 238.524 274.012 238.332 274.218C238.139 274.425 237.906 274.59 237.646 274.703C237.387 274.815 237.108 274.873 236.825 274.873C236.543 274.873 236.263 274.815 236.004 274.703C235.745 274.59 235.511 274.425 235.319 274.218C235.126 274.012 234.978 273.768 234.883 273.501C234.789 273.235 234.75 272.952 234.77 272.67C234.75 272.388 234.789 272.105 234.883 271.839C234.978 271.572 235.126 271.328 235.319 271.122C235.511 270.915 235.745 270.75 236.004 270.637C236.263 270.525 236.543 270.467 236.825 270.467C237.108 270.467 237.387 270.525 237.646 270.637C237.906 270.75 238.139 270.915 238.332 271.122C238.524 271.328 238.673 271.572 238.767 271.839C238.861 272.105 238.9 272.388 238.88 272.67V272.67Z" fill="#407BFF"/>
<path d="M245.26 272.7C245.23 273.102 245.084 273.487 244.837 273.806C244.591 274.126 244.257 274.366 243.875 274.497C243.494 274.628 243.082 274.645 242.692 274.544C242.301 274.444 241.949 274.231 241.678 273.932C241.407 273.632 241.231 273.261 241.169 272.862C241.108 272.463 241.165 272.055 241.334 271.689C241.502 271.322 241.775 271.014 242.117 270.8C242.459 270.587 242.857 270.479 243.26 270.49C243.816 270.524 244.337 270.774 244.711 271.187C245.085 271.6 245.282 272.143 245.26 272.7Z" fill="#407BFF"/>
<path d="M251.63 272.73C251.601 273.132 251.454 273.517 251.208 273.836C250.961 274.156 250.627 274.396 250.245 274.527C249.864 274.658 249.452 274.675 249.062 274.574C248.671 274.474 248.319 274.261 248.048 273.962C247.778 273.662 247.601 273.291 247.539 272.892C247.478 272.493 247.535 272.085 247.704 271.719C247.872 271.352 248.145 271.043 248.487 270.83C248.829 270.617 249.227 270.509 249.63 270.52C250.186 270.554 250.707 270.804 251.081 271.217C251.455 271.63 251.652 272.173 251.63 272.73Z" fill="#407BFF"/>
<path d="M258 272.75C257.972 273.153 257.827 273.539 257.582 273.86C257.337 274.18 257.003 274.422 256.621 274.555C256.24 274.688 255.828 274.705 255.437 274.606C255.046 274.506 254.692 274.294 254.42 273.995C254.149 273.696 253.971 273.324 253.909 272.925C253.847 272.526 253.904 272.118 254.072 271.751C254.24 271.384 254.513 271.074 254.856 270.861C255.198 270.647 255.596 270.539 256 270.55C256.554 270.583 257.074 270.832 257.447 271.243C257.821 271.654 258.019 272.195 258 272.75Z" fill="#407BFF"/>
<path d="M264.38 272.78C264.353 273.181 264.209 273.565 263.966 273.885C263.723 274.205 263.392 274.447 263.014 274.581C262.635 274.716 262.226 274.736 261.836 274.641C261.445 274.546 261.092 274.338 260.818 274.044C260.544 273.75 260.362 273.383 260.294 272.987C260.227 272.591 260.276 272.184 260.437 271.816C260.598 271.448 260.863 271.135 261.199 270.915C261.535 270.695 261.928 270.579 262.33 270.58C262.893 270.601 263.425 270.844 263.81 271.256C264.194 271.669 264.399 272.217 264.38 272.78V272.78Z" fill="#407BFF"/>
<path d="M270.75 272.81C270.77 273.092 270.731 273.375 270.637 273.641C270.542 273.908 270.394 274.152 270.202 274.358C270.009 274.565 269.776 274.73 269.516 274.843C269.257 274.955 268.978 275.013 268.695 275.013C268.412 275.013 268.133 274.955 267.874 274.843C267.614 274.73 267.381 274.565 267.189 274.358C266.996 274.152 266.848 273.908 266.753 273.641C266.659 273.375 266.62 273.092 266.64 272.81C266.62 272.528 266.659 272.245 266.753 271.979C266.848 271.712 266.996 271.468 267.189 271.262C267.381 271.055 267.614 270.89 267.874 270.777C268.133 270.665 268.412 270.607 268.695 270.607C268.978 270.607 269.257 270.665 269.516 270.777C269.776 270.89 270.009 271.055 270.202 271.262C270.394 271.468 270.542 271.712 270.637 271.979C270.731 272.245 270.77 272.528 270.75 272.81Z" fill="#407BFF"/>
<path d="M277.12 272.84C277.093 273.241 276.949 273.625 276.706 273.945C276.463 274.265 276.132 274.507 275.754 274.641C275.375 274.776 274.966 274.796 274.576 274.701C274.185 274.606 273.832 274.398 273.558 274.104C273.284 273.81 273.102 273.443 273.034 273.047C272.967 272.651 273.016 272.244 273.177 271.876C273.338 271.508 273.602 271.195 273.939 270.975C274.275 270.755 274.668 270.639 275.07 270.64C275.633 270.661 276.165 270.904 276.55 271.316C276.934 271.729 277.139 272.277 277.12 272.84V272.84Z" fill="#407BFF"/>
<path d="M283.49 272.87C283.462 273.273 283.317 273.659 283.072 273.98C282.827 274.3 282.493 274.542 282.111 274.675C281.73 274.808 281.318 274.825 280.927 274.726C280.536 274.626 280.182 274.414 279.91 274.115C279.639 273.816 279.461 273.444 279.399 273.045C279.337 272.646 279.394 272.238 279.562 271.871C279.73 271.504 280.003 271.194 280.346 270.981C280.688 270.767 281.086 270.659 281.49 270.67C282.044 270.704 282.564 270.952 282.937 271.363C283.311 271.774 283.509 272.315 283.49 272.87V272.87Z" fill="#407BFF"/>
<g opacity="0.2">
<path opacity="0.2" d="M232.51 272.64C232.48 273.042 232.334 273.427 232.087 273.746C231.841 274.066 231.507 274.306 231.125 274.437C230.744 274.568 230.332 274.585 229.942 274.484C229.551 274.384 229.199 274.171 228.928 273.871C228.657 273.572 228.481 273.2 228.419 272.802C228.358 272.403 228.415 271.995 228.584 271.629C228.752 271.262 229.025 270.953 229.367 270.74C229.709 270.527 230.107 270.419 230.51 270.43C231.067 270.461 231.59 270.71 231.964 271.124C232.338 271.538 232.535 272.083 232.51 272.64V272.64Z" fill="white"/>
<path opacity="0.2" d="M238.88 272.67C238.9 272.952 238.861 273.235 238.767 273.501C238.672 273.768 238.524 274.012 238.331 274.218C238.139 274.425 237.905 274.59 237.646 274.703C237.387 274.815 237.107 274.873 236.825 274.873C236.542 274.873 236.263 274.815 236.004 274.703C235.744 274.59 235.511 274.425 235.318 274.218C235.126 274.012 234.977 273.768 234.883 273.501C234.789 273.235 234.75 272.952 234.77 272.67C234.75 272.388 234.789 272.105 234.883 271.839C234.977 271.572 235.126 271.328 235.318 271.121C235.511 270.915 235.744 270.75 236.004 270.637C236.263 270.525 236.542 270.466 236.825 270.466C237.107 270.466 237.387 270.525 237.646 270.637C237.905 270.75 238.139 270.915 238.331 271.121C238.524 271.328 238.672 271.572 238.767 271.839C238.861 272.105 238.9 272.388 238.88 272.67V272.67Z" fill="white"/>
<path opacity="0.2" d="M245.26 272.7C245.23 273.102 245.084 273.487 244.837 273.806C244.591 274.126 244.257 274.366 243.875 274.497C243.494 274.628 243.082 274.645 242.692 274.544C242.301 274.444 241.949 274.231 241.678 273.931C241.407 273.632 241.231 273.26 241.169 272.862C241.108 272.463 241.165 272.055 241.334 271.689C241.502 271.322 241.775 271.013 242.117 270.8C242.459 270.587 242.857 270.479 243.26 270.49C243.816 270.523 244.337 270.774 244.711 271.187C245.085 271.6 245.282 272.143 245.26 272.7Z" fill="white"/>
<path opacity="0.2" d="M251.63 272.73C251.601 273.132 251.454 273.517 251.208 273.836C250.961 274.156 250.627 274.396 250.245 274.527C249.864 274.658 249.452 274.675 249.062 274.574C248.671 274.474 248.319 274.26 248.048 273.961C247.778 273.662 247.601 273.29 247.539 272.892C247.478 272.493 247.535 272.085 247.704 271.719C247.872 271.352 248.145 271.043 248.487 270.83C248.829 270.617 249.227 270.509 249.63 270.52C250.186 270.553 250.707 270.804 251.081 271.217C251.455 271.63 251.652 272.173 251.63 272.73Z" fill="white"/>
<path opacity="0.2" d="M258 272.75C257.972 273.153 257.827 273.539 257.582 273.86C257.337 274.18 257.003 274.422 256.621 274.555C256.24 274.688 255.828 274.705 255.437 274.606C255.046 274.506 254.692 274.294 254.42 273.995C254.149 273.696 253.971 273.324 253.909 272.925C253.847 272.526 253.904 272.118 254.072 271.751C254.24 271.384 254.513 271.074 254.856 270.861C255.198 270.647 255.596 270.539 256 270.55C256.554 270.583 257.074 270.832 257.447 271.243C257.821 271.654 258.019 272.195 258 272.75Z" fill="white"/>
<path opacity="0.2" d="M264.38 272.78C264.353 273.181 264.209 273.565 263.966 273.885C263.723 274.205 263.392 274.447 263.014 274.581C262.635 274.716 262.226 274.736 261.835 274.641C261.445 274.546 261.091 274.338 260.818 274.044C260.544 273.75 260.362 273.383 260.294 272.987C260.226 272.591 260.276 272.184 260.437 271.816C260.597 271.448 260.862 271.135 261.199 270.915C261.535 270.695 261.928 270.579 262.33 270.58C262.893 270.601 263.425 270.844 263.809 271.256C264.194 271.669 264.399 272.217 264.38 272.78V272.78Z" fill="white"/>
<path opacity="0.2" d="M270.75 272.81C270.77 273.092 270.731 273.375 270.637 273.641C270.542 273.908 270.394 274.152 270.202 274.358C270.009 274.565 269.776 274.73 269.516 274.843C269.257 274.955 268.978 275.013 268.695 275.013C268.412 275.013 268.133 274.955 267.874 274.843C267.614 274.73 267.381 274.565 267.189 274.358C266.996 274.152 266.848 273.908 266.753 273.641C266.659 273.375 266.62 273.092 266.64 272.81C266.62 272.528 266.659 272.245 266.753 271.979C266.848 271.712 266.996 271.468 267.189 271.261C267.381 271.055 267.614 270.89 267.874 270.777C268.133 270.665 268.412 270.607 268.695 270.607C268.978 270.607 269.257 270.665 269.516 270.777C269.776 270.89 270.009 271.055 270.202 271.261C270.394 271.468 270.542 271.712 270.637 271.979C270.731 272.245 270.77 272.528 270.75 272.81Z" fill="white"/>
<path opacity="0.2" d="M277.12 272.84C277.093 273.241 276.949 273.625 276.706 273.945C276.463 274.265 276.132 274.507 275.754 274.641C275.375 274.776 274.966 274.796 274.575 274.701C274.185 274.606 273.831 274.398 273.558 274.104C273.284 273.81 273.102 273.443 273.034 273.047C272.966 272.651 273.016 272.244 273.177 271.876C273.337 271.508 273.602 271.194 273.939 270.975C274.275 270.755 274.668 270.639 275.07 270.64C275.633 270.661 276.165 270.904 276.549 271.316C276.934 271.729 277.139 272.277 277.12 272.84V272.84Z" fill="white"/>
<path opacity="0.2" d="M283.49 272.87C283.462 273.273 283.317 273.659 283.072 273.979C282.827 274.3 282.493 274.542 282.111 274.675C281.73 274.807 281.318 274.825 280.927 274.726C280.536 274.626 280.182 274.414 279.91 274.115C279.639 273.816 279.461 273.444 279.399 273.045C279.337 272.646 279.394 272.238 279.562 271.871C279.73 271.504 280.003 271.194 280.346 270.981C280.688 270.767 281.086 270.659 281.49 270.67C282.044 270.703 282.564 270.952 282.937 271.363C283.311 271.774 283.509 272.315 283.49 272.87V272.87Z" fill="white"/>
</g>
<path d="M274.44 128.51C275.135 128.204 275.724 127.701 276.135 127.062C276.545 126.424 276.759 125.679 276.75 124.92C276.776 124.427 276.701 123.933 276.53 123.47C276.359 123.006 276.095 122.582 275.755 122.224C275.415 121.865 275.006 121.58 274.552 121.385C274.098 121.19 273.609 121.089 273.115 121.089C272.621 121.089 272.132 121.19 271.678 121.385C271.224 121.58 270.815 121.865 270.474 122.224C270.134 122.582 269.871 123.006 269.7 123.47C269.529 123.933 269.454 124.427 269.48 124.92C269.465 125.687 269.677 126.44 270.09 127.087C270.503 127.733 271.098 128.242 271.8 128.55C266.2 129.39 266.45 135.47 266.45 135.47L279.69 135.53C279.69 135.53 280 129.34 274.44 128.51Z" fill="#407BFF"/>
<path opacity="0.1" d="M274.44 128.51C275.135 128.204 275.724 127.701 276.135 127.062C276.545 126.424 276.759 125.679 276.75 124.92C276.776 124.427 276.701 123.933 276.53 123.47C276.359 123.006 276.095 122.582 275.755 122.224C275.415 121.865 275.006 121.58 274.552 121.385C274.098 121.19 273.609 121.089 273.115 121.089C272.621 121.089 272.132 121.19 271.678 121.385C271.224 121.58 270.815 121.865 270.474 122.224C270.134 122.582 269.871 123.006 269.7 123.47C269.529 123.933 269.454 124.427 269.48 124.92C269.465 125.687 269.677 126.44 270.09 127.087C270.503 127.733 271.098 128.242 271.8 128.55C266.2 129.39 266.45 135.47 266.45 135.47L279.69 135.53C279.69 135.53 280 129.34 274.44 128.51Z" fill="black"/>
<path d="M295.955 139.451L248.765 139.237L248.74 144.877L295.929 145.091L295.955 139.451Z" fill="#407BFF"/>
<path opacity="0.2" d="M295.955 139.451L248.765 139.237L248.74 144.877L295.929 145.091L295.955 139.451Z" fill="white"/>
<path d="M122.47 168.68H122L120.64 168.78C119.904 168.824 119.172 168.921 118.45 169.07C117.982 169.136 117.518 169.226 117.06 169.34L115.51 169.77C112.872 170.579 110.383 171.812 108.14 173.42C105.177 175.571 102.703 178.324 100.88 181.5C99.8087 183.331 98.9562 185.281 98.34 187.31C97.6925 189.516 97.3197 191.793 97.23 194.09C97.1704 195.297 97.1904 196.506 97.29 197.71C97.29 198.32 97.46 198.93 97.54 199.55C97.6073 200.175 97.7243 200.794 97.89 201.4C98.7892 205.413 100.614 209.16 103.218 212.342C105.822 215.525 109.134 218.055 112.89 219.73C115.608 220.903 118.521 221.557 121.48 221.66C124.536 221.828 127.594 221.39 130.48 220.37L131.36 220.04H131.48L131.58 220.1L144.19 226.5L143.82 226.82C142.47 222.64 141.17 218.59 139.91 214.7V214.55L140.02 214.44C143.079 211.359 145.35 207.586 146.64 203.44C147.809 199.65 148.15 195.653 147.64 191.72C147.187 188.225 146.063 184.849 144.33 181.78C142.836 179.143 140.909 176.777 138.63 174.78C136.749 173.199 134.668 171.875 132.44 170.84C130.754 170.113 128.998 169.56 127.2 169.19L125.2 168.86L123.75 168.75L122.87 168.69H122.57C122.67 168.679 122.77 168.679 122.87 168.69H123.76L125.21 168.75L127.21 169.04C129.031 169.383 130.81 169.916 132.52 170.63C134.786 171.652 136.905 172.974 138.82 174.56C141.141 176.548 143.109 178.915 144.64 181.56C146.422 184.662 147.58 188.083 148.05 191.63C148.602 195.624 148.285 199.69 147.12 203.55C145.821 207.782 143.515 211.635 140.4 214.78L140.46 214.52C141.72 218.41 143.03 222.46 144.39 226.63L144.58 227.24L144.01 226.95L131.4 220.56H131.62L130.72 220.89C127.779 221.925 124.664 222.373 121.55 222.21C118.528 222.095 115.553 221.417 112.78 220.21C107.49 217.944 103.088 214.007 100.25 209C98.9439 206.688 97.9901 204.194 97.42 201.6C97.2639 200.978 97.147 200.347 97.07 199.71C96.99 199.08 96.86 198.46 96.83 197.84C96.5593 194.282 96.9354 190.704 97.94 187.28C98.5715 185.223 99.4478 183.248 100.55 181.4C102.416 178.196 104.942 175.424 107.96 173.27C110.24 171.658 112.771 170.435 115.45 169.65L117.02 169.25C117.482 169.143 117.949 169.059 118.42 169C119.15 168.865 119.888 168.785 120.63 168.76L122 168.71C122.156 168.689 122.313 168.679 122.47 168.68Z" fill="#407BFF"/>
<path d="M128.17 192H126.32L122.32 186.38V182.69C122.32 182.69 119.46 182.51 119.8 187.34C120.14 192.17 119.8 190.94 119.8 190.94C119.8 190.94 113.73 190.94 113.23 191.49C112.73 192.04 112.7 197.9 112.63 201.17C112.592 201.958 112.818 202.737 113.273 203.382C113.727 204.027 114.385 204.501 115.14 204.73C115.352 204.789 115.57 204.819 115.79 204.82C117.31 204.82 125.04 203.59 125.04 203.59H128.23L128.17 192Z" fill="#407BFF"/>
<path d="M133.46 191.01L132.32 203.65H129.16V191.27L133.46 191.01Z" fill="#407BFF"/>
<path d="M171.15 448.34V439.79L155.82 439.68L155.69 452.61L156.64 452.68C160.87 452.95 178.16 453.35 181 452.47C184.16 451.49 171.15 448.34 171.15 448.34Z" fill="#407BFF"/>
<path d="M181.36 451.67C181.36 451.81 175.62 451.93 168.55 451.93C161.48 451.93 155.74 451.81 155.74 451.67C155.74 451.53 161.48 451.41 168.55 451.41C175.62 451.41 181.36 451.53 181.36 451.67Z" fill="#263238"/>
<path d="M171.42 450.09C171.29 450.02 171.42 449.57 171.73 449.09C172.04 448.61 172.46 448.41 172.56 448.51C172.66 448.61 172.45 448.99 172.15 449.4C171.85 449.81 171.55 450.16 171.42 450.09Z" fill="#263238"/>
<path d="M172.4 450.65C172.26 450.65 172.33 450.09 172.63 449.56C172.93 449.03 173.33 448.71 173.44 448.79C173.55 448.87 173.37 449.32 173.09 449.79C172.81 450.26 172.53 450.7 172.4 450.65Z" fill="#263238"/>
<path d="M160.36 451.63C160.3 451.63 160.07 451.45 159.74 451.07C159.337 450.582 158.888 450.133 158.4 449.73C157.92 449.346 157.347 449.095 156.74 449C156.27 448.94 155.97 449 155.94 448.94C155.91 448.88 156.2 448.67 156.75 448.63C157.476 448.615 158.184 448.855 158.75 449.31C159.28 449.742 159.728 450.267 160.07 450.86C160.3 451.3 160.42 451.59 160.36 451.63Z" fill="#263238"/>
<path d="M171.47 448.48C171.54 448.6 171.28 448.9 170.84 449.06C170.4 449.22 170.01 449.16 169.99 449.06C169.97 448.96 170.28 448.75 170.66 448.61C171.04 448.47 171.39 448.36 171.47 448.48Z" fill="#263238"/>
<path d="M171.23 447.65C171.23 447.8 170.83 447.92 170.31 447.93C169.79 447.94 169.38 447.82 169.39 447.68C169.4 447.54 169.81 447.41 170.31 447.4C170.81 447.39 171.21 447.51 171.23 447.65Z" fill="#263238"/>
<path d="M208.9 448.34V439.79L193.57 439.68L193.44 452.48L194.39 452.55C198.62 452.82 215.92 453.35 218.75 452.47C221.91 451.49 208.9 448.34 208.9 448.34Z" fill="#407BFF"/>
<path d="M219.11 451.69C219.11 451.83 213.38 451.95 206.3 451.95C199.22 451.95 193.5 451.83 193.5 451.69C193.5 451.55 199.23 451.43 206.3 451.43C213.37 451.43 219.11 451.55 219.11 451.69Z" fill="#263238"/>
<path d="M209.17 450.09C209.05 450.02 209.17 449.57 209.48 449.09C209.79 448.61 210.21 448.41 210.31 448.51C210.41 448.61 210.2 448.99 209.9 449.4C209.6 449.81 209.3 450.16 209.17 450.09Z" fill="#263238"/>
<path d="M210.15 450.65C210.02 450.65 210.08 450.09 210.39 449.56C210.7 449.03 211.09 448.71 211.2 448.79C211.31 448.87 211.12 449.32 210.84 449.79C210.56 450.26 210.29 450.7 210.15 450.65Z" fill="#263238"/>
<path d="M198.11 451.63C198.05 451.63 197.83 451.45 197.49 451.07C197.087 450.582 196.638 450.133 196.15 449.73C195.67 449.346 195.097 449.095 194.49 449C194.03 448.94 193.72 449 193.69 448.94C193.66 448.88 193.95 448.67 194.5 448.63C195.226 448.615 195.934 448.855 196.5 449.31C197.033 449.739 197.481 450.265 197.82 450.86C198.05 451.3 198.17 451.59 198.11 451.63Z" fill="#263238"/>
<path d="M209.22 448.48C209.29 448.6 209.03 448.9 208.59 449.06C208.15 449.22 207.76 449.16 207.74 449.06C207.72 448.96 208.03 448.75 208.41 448.61C208.79 448.47 209.14 448.36 209.22 448.48Z" fill="#263238"/>
<path d="M209 447.65C209 447.8 208.6 447.92 208.08 447.93C207.56 447.94 207.16 447.82 207.17 447.68C207.18 447.54 207.58 447.41 208.08 447.4C208.58 447.39 209 447.51 209 447.65Z" fill="#263238"/>
<path d="M265.38 194.44C264.98 194.03 263.99 194.23 263.99 194.23C264.089 193.654 264.089 193.066 263.99 192.49C263.81 191.93 262.55 192.04 262.55 192.04C262.492 191.568 262.492 191.092 262.55 190.62C262.56 190.515 262.538 190.41 262.486 190.319C262.434 190.228 262.355 190.155 262.26 190.11C261.664 189.867 261.023 189.751 260.38 189.77C259.61 189.22 262.73 184.85 263.89 183.45C265.05 182.05 264.84 180.96 263.81 180.96C263.1 180.96 259.46 185.16 258.34 186.57C257.22 187.98 254.25 191.9 254.15 188.77C254.05 185.64 252.79 183.28 252 182.88C251.21 182.48 250.37 183.42 250.8 184.29C251.178 185.278 251.413 186.315 251.5 187.37C251.609 188.21 251.571 189.063 251.39 189.89C251.058 191.429 250.607 192.941 250.04 194.41H249.96C249.96 194.41 228.14 215.34 226.56 216.83C225.15 218.17 196.79 215.24 191.1 214.64C189.166 214.357 187.214 214.223 185.26 214.24C182.79 214.35 182.35 214.7 179.89 214.73C173.677 214.799 167.479 215.344 161.35 216.36C158.575 216.832 155.982 218.057 153.855 219.901C151.729 221.746 150.149 224.139 149.29 226.82C143.56 244.72 130.58 287.09 128.29 310.89C126.56 314.028 124.997 317.256 123.61 320.56C122 324.94 122.39 325.09 122.93 325.19C124.39 325.46 126.05 317.6 126.67 319.5C127.29 321.4 123.52 328.87 125.05 329.09C127.05 329.37 128.64 321.09 128.83 320.43C129.02 319.77 130.01 319.98 129.83 320.6C129.54 321.48 126.73 330.81 128.69 331.11C129.77 331.27 129.89 329.3 129.89 329.3C129.89 329.3 131.89 320.37 132.8 320.55C133.71 320.73 132.74 326 132.28 327.76C131.82 329.52 132.46 330.41 133.4 329.98C134.04 329.68 135.57 324.33 135.99 322.59C136.41 320.85 137.46 316.03 138.87 318.82C140.28 321.61 142.42 323.23 143.3 323.27C143.498 323.247 143.685 323.165 143.837 323.035C143.988 322.905 144.097 322.733 144.15 322.541C144.203 322.348 144.197 322.144 144.132 321.955C144.068 321.766 143.949 321.601 143.79 321.48C143.033 320.741 142.383 319.899 141.86 318.98C141.393 318.264 141.055 317.472 140.86 316.64C140.457 314.981 140.222 313.286 140.16 311.58L140 310.58C142.24 299.49 148.69 266.94 158 246.15L161.82 254.01L163.48 259.83L153.3 284.96L196.72 284.39L190.24 259.45L198.11 233.45C206.62 233.64 228.47 233.96 232.11 232.31C236.69 230.31 260.38 200.39 260.38 200.39C261.924 199.19 263.403 197.908 264.81 196.55C264.81 196.55 266.25 195.34 265.38 194.44Z" fill="#FFBE9D"/>
<path d="M151.39 266.39C152.65 262.09 159.12 240.83 159.12 240.83C159.12 240.83 162.3 258.16 161.46 260.25C160.687 262.039 159.774 263.765 158.73 265.41C151.39 276.58 152.35 282.17 152.35 282.17L196.7 280.82C196.8 274.62 193.13 260.2 192.37 257.9C191.61 255.6 194.14 248.07 194.14 248.07C194.14 248.07 199.14 242.98 198.96 240.36C198.865 238.007 198.574 235.665 198.09 233.36L225.09 234.36L224.24 216.06L185.46 212.18C184.11 215.99 171.9 214.12 171.9 214.12C158.72 214.56 157.9 216.98 152.42 221.24C146.94 225.5 137.87 262.06 137.87 262.06L151.39 266.39Z" fill="#407BFF"/>
<path d="M177.61 262.06C176.841 262.197 176.059 262.238 175.28 262.18C173.83 262.18 171.84 262.08 169.65 261.86C167.46 261.64 165.48 261.33 164.07 261.05C163.293 260.95 162.53 260.755 161.8 260.47C162.582 260.47 163.362 260.544 164.13 260.69C165.55 260.87 167.52 261.12 169.7 261.34C171.88 261.56 173.86 261.71 175.29 261.81C176.07 261.82 176.846 261.904 177.61 262.06V262.06Z" fill="#263238"/>
<path d="M180.65 258.29C179.881 258.667 179.068 258.945 178.23 259.12C174.24 260.168 170.124 260.656 166 260.57C165.147 260.598 164.293 260.517 163.46 260.33C164.302 260.224 165.151 260.18 166 260.2C167.57 260.15 169.73 260.04 172.11 259.76C174.49 259.48 176.61 259.08 178.11 258.76C178.943 258.537 179.792 258.38 180.65 258.29V258.29Z" fill="#263238"/>
<path d="M195.57 241.47C195.55 242.232 195.446 242.99 195.26 243.73C195 245.12 194.6 247.02 194.09 249.1C193.58 251.18 193.09 253.1 192.65 254.4C192.473 255.144 192.211 255.865 191.87 256.55C191.926 255.79 192.066 255.039 192.29 254.31C192.67 252.75 193.1 250.95 193.58 248.98C194.06 247.01 194.52 245.21 194.9 243.65C195.035 242.899 195.26 242.167 195.57 241.47V241.47Z" fill="#263238"/>
<path d="M151.86 263.84C149.547 263.483 147.263 262.951 145.03 262.25C142.748 261.716 140.508 261.014 138.33 260.15C140.642 260.513 142.925 261.044 145.16 261.74C147.443 262.272 149.682 262.974 151.86 263.84V263.84Z" fill="#263238"/>
<path d="M198.57 233.14C198.193 233.205 197.807 233.205 197.43 233.14C196.385 233.033 195.36 232.787 194.38 232.41C192.744 231.795 191.255 230.845 190.008 229.621C188.761 228.396 187.784 226.924 187.14 225.3C186.428 223.513 186.124 221.589 186.25 219.67C186.295 218.087 186.768 216.545 187.62 215.21C188.219 214.31 189.114 213.649 190.15 213.34C190.427 213.264 190.713 213.227 191 213.23C191.2 213.23 191.3 213.23 191.3 213.23C191.3 213.23 190.88 213.23 190.21 213.5C189.26 213.851 188.454 214.509 187.92 215.37C186.56 217.51 186.18 221.42 187.63 225.07C188.305 226.791 189.361 228.336 190.72 229.59C191.833 230.616 193.115 231.441 194.51 232.03C195.819 232.547 197.18 232.919 198.57 233.14V233.14Z" fill="#263238"/>
<path d="M221.88 234C221.63 230.933 221.55 227.855 221.64 224.78C221.562 221.707 221.655 218.632 221.92 215.57C222.17 218.633 222.25 221.708 222.16 224.78C222.244 227.856 222.15 230.935 221.88 234V234Z" fill="#263238"/>
<path d="M185.2 213.3C185.31 211.07 185.54 208.55 185.54 208.55C185.54 208.55 191.06 207.94 191.39 202.24C191.72 196.54 191.39 183.39 191.39 183.39L181.39 178.27L170.29 187L172 215.5L182.18 216.15C182.958 216.172 183.713 215.884 184.279 215.349C184.845 214.815 185.177 214.078 185.2 213.3V213.3Z" fill="#FFBE9D"/>
<path d="M186.19 197.73C186.19 197.73 186.19 197.84 186.1 197.97C186.026 198.064 185.929 198.139 185.82 198.188C185.71 198.237 185.59 198.258 185.47 198.25C184.83 198.25 184.21 197.51 183.99 196.65C183.885 196.233 183.885 195.797 183.99 195.38C184.011 195.198 184.076 195.024 184.181 194.874C184.286 194.724 184.426 194.602 184.59 194.52C184.725 194.464 184.876 194.464 185.01 194.52C185.11 194.57 185.191 194.65 185.24 194.75C185.31 194.92 185.24 195.03 185.24 195.02C185.24 195.01 185.24 194.92 185.14 194.82C185.088 194.748 185.011 194.699 184.924 194.68C184.837 194.662 184.747 194.676 184.67 194.72C184.547 194.794 184.445 194.898 184.374 195.022C184.302 195.146 184.263 195.287 184.26 195.43C184.176 195.802 184.176 196.188 184.26 196.56C184.46 197.34 185 197.97 185.48 198.03C185.574 198.043 185.669 198.036 185.761 198.01C185.852 197.984 185.937 197.94 186.01 197.88C186.13 197.8 186.17 197.72 186.19 197.73Z" fill="#EB996E"/>
<path d="M194.82 180.31C194.05 177.69 191.26 176.39 188.72 175.67C184.85 174.57 180.67 174.09 176.89 175.48C173.11 176.87 168.57 179.31 168.57 183.48C166.34 183.3 165.06 185.25 164.18 187.67C163.617 189.144 163.28 190.695 163.18 192.27V192.27C162.9 197.73 161.37 205.27 157.83 209.27C155.83 211.5 153.06 213.04 151.92 215.82C150.92 218.23 151.44 221.09 150.51 223.53C149.68 225.68 147.85 227.21 146.51 229.08C145.145 231.201 144.341 233.635 144.175 236.152C144.009 238.669 144.485 241.188 145.56 243.47C146.642 245.694 148.166 247.674 150.038 249.29C151.91 250.906 154.092 252.124 156.45 252.87C161.121 254.291 166.102 254.34 170.8 253.01C174.326 252.167 177.615 250.536 180.42 248.24C183.29 245.896 185.262 242.632 186 239C186.71 234.92 185.57 230.77 184.72 226.71C182.06 213.88 182.82 213.21 186.18 201.3C186.26 201.09 186.3 200.87 186.36 200.66C186.42 200.45 186.45 200.35 186.49 200.19C186.585 199.719 186.636 199.24 186.64 198.76C186.149 198.942 185.616 198.981 185.105 198.871C184.593 198.761 184.123 198.508 183.75 198.14C183.376 197.748 183.116 197.262 182.996 196.734C182.876 196.206 182.902 195.655 183.07 195.14C183.306 194.577 183.657 194.07 184.102 193.651C184.546 193.232 185.074 192.912 185.65 192.71C186.76 192.25 187.95 192.01 189.04 191.5C191.35 190.4 192.95 188.12 194.04 185.73C194.936 184.074 195.213 182.152 194.82 180.31V180.31Z" fill="#263238"/>
<path d="M186.59 198C186.801 198.312 186.976 198.648 187.11 199C187.41 199.63 187.81 200.52 188.25 201.55L188.33 201.74H188.12L187.12 201.83C186.43 201.83 185.85 201.96 185.17 201.95C185.111 201.937 185.056 201.909 185.01 201.868C184.965 201.828 184.93 201.777 184.91 201.72C184.88 201.629 184.88 201.531 184.91 201.44C184.933 201.305 184.963 201.172 185 201.04L185.18 200.33C185.27 199.856 185.411 199.394 185.6 198.95C185.581 199.433 185.511 199.912 185.39 200.38L185.25 201.09C185.2 201.33 185.11 201.7 185.25 201.67C185.75 201.67 186.46 201.56 187.12 201.52L188.12 201.43L187.99 201.65C187.56 200.65 187.2 199.71 186.99 199.06C186.806 198.728 186.671 198.371 186.59 198V198Z" fill="#407BFF"/>
<path d="M152.35 282.17L196.7 280.82L216 356.16L212.45 442.58H189L191.87 358L174.72 305.55L177.36 445.93L153.66 446.28L151.17 314.33C151.06 310.66 149.86 302.39 150.31 298.75L152.35 282.17Z" fill="#263238"/>
<path d="M180.62 306.62C179.894 306.666 179.165 306.622 178.45 306.49C177.11 306.33 175.28 306.05 173.27 305.65C171.26 305.25 169.46 304.79 168.16 304.42C167.465 304.267 166.793 304.025 166.16 303.7C166.16 303.55 169.42 304.33 173.42 305.14C177.42 305.95 180.64 306.47 180.62 306.62Z" fill="#455A64"/>
<path d="M212.21 437.84C212.21 437.98 206.9 438.1 200.35 438.1C193.8 438.1 188.48 437.98 188.48 437.84C188.48 437.7 193.79 437.58 200.35 437.58C206.91 437.58 212.21 437.69 212.21 437.84Z" fill="#455A64"/>
<path d="M177.15 442.28C177.15 442.43 171.99 442.54 165.63 442.54C159.27 442.54 154.12 442.43 154.12 442.28C154.12 442.13 159.28 442.02 165.63 442.02C171.98 442.02 177.15 442.14 177.15 442.28Z" fill="#455A64"/>
<path d="M174.09 441.92C173.95 441.92 173.33 411.25 172.7 373.42C172.07 335.59 171.7 304.9 171.83 304.9C171.96 304.9 172.6 335.56 173.22 373.41C173.84 411.26 174.24 441.92 174.09 441.92Z" fill="#455A64"/>
<path d="M209.06 437.84C209.049 437.704 209.049 437.566 209.06 437.43V436.23C209.06 435.15 209.14 433.6 209.2 431.63C209.34 427.63 209.54 421.82 209.79 414.7C210.33 400.38 211.09 380.64 211.92 358.85C211.92 358.64 211.92 358.44 211.92 358.26V358.33C206.67 337.33 201.92 318.27 198.47 304.48L194.47 288.17C194.01 286.26 193.66 284.77 193.41 283.73C193.29 283.24 193.21 282.86 193.14 282.57C193.101 282.44 193.078 282.306 193.07 282.17C193.122 282.296 193.162 282.427 193.19 282.56C193.27 282.84 193.37 283.22 193.51 283.7C193.78 284.7 194.17 286.22 194.67 288.12C195.67 291.98 197.08 297.54 198.84 304.39C202.32 318.17 207.12 337.18 212.44 358.21V358.28C212.44 358.46 212.44 358.67 212.44 358.87C211.55 380.66 210.74 400.39 210.15 414.71C209.84 421.84 209.58 427.61 209.4 431.63C209.3 433.63 209.22 435.15 209.17 436.23C209.17 436.74 209.11 437.14 209.1 437.43C209.102 437.568 209.088 437.705 209.06 437.84V437.84Z" fill="#455A64"/>
<path d="M201.41 356.5C199.726 357.054 197.99 357.439 196.23 357.65C194.07 358.02 192.23 358.28 191.4 358.32V358.12C191.67 358.2 191.81 358.25 191.81 358.29C191.81 358.33 191.64 358.29 191.36 358.29H190.76L191.36 358.11C192.14 357.88 193.98 357.5 196.14 357.11C197.872 356.734 199.638 356.53 201.41 356.5Z" fill="#455A64"/>
<path d="M201 359.37C199.44 359.441 197.877 359.371 196.33 359.16C194.768 359.128 193.212 358.957 191.68 358.65C194.805 358.395 197.951 358.638 201 359.37V359.37Z" fill="#455A64"/>
<path opacity="0.2" d="M152.16 283.76C152.685 284.434 153.347 284.991 154.101 285.392C154.856 285.794 155.687 286.031 156.54 286.09C158.326 286.302 160.133 286.268 161.91 285.99C173.36 284.72 185.49 283.55 196.7 280.82C182.19 281.63 166.86 281.36 152.35 282.17L152.2 283.41" fill="black"/>
<g opacity="0.2">
<path opacity="0.2" d="M167.11 304.21L175.29 335.95L174.72 305.55L167.11 304.21Z" fill="black"/>
</g>
</svg>
